<?xml version="1.0" encoding="utf-8"?>
<!-- Generator: Adobe Illustrator 16.0.4, SVG Export Plug-In . SVG Version: 6.00 Build 0)  -->
<!DOCTYPE svg PUBLIC "-//W3C//DTD SVG 1.1//EN" "http://www.w3.org/Graphics/SVG/1.1/DTD/svg11.dtd">
<svg version="1.1" id="Layer_1" xmlns="http://www.w3.org/2000/svg" xmlns:xlink="http://www.w3.org/1999/xlink" x="0px" y="0px"
	 width="84px" height="100px" viewBox="0 0 84 100" enable-background="new 0 0 84 100" xml:space="preserve">
<g>
	<g>
		<path d="M41.624,0c1.136,0.234,2.281,0.433,3.407,0.707c9.143,2.22,16.067,10.276,16.899,19.641
			c1.048,11.795-6.667,22.266-18.229,24.36c-8.271,1.499-15.416-0.948-21.067-7.221c-7.406-8.22-7.619-20.764-0.56-29.243
			c3.801-4.564,8.688-7.256,14.592-8.062c0.192-0.026,0.424,0.05,0.549-0.182C38.686,0,40.154,0,41.624,0z"/>
		<path d="M45.01,82.071c-0.118-3.343-0.012-6.692-0.027-10.039c-0.013-2.751-0.133-5.497-0.733-8.194
			c-0.165-0.742-0.262-1.513-0.624-2.203c0-0.151,0-0.304,0-0.456c0.365-0.583,0.827-0.668,1.505-0.493
			c4.34,1.12,8.399,0.453,12.111-2.088c1.542-1.057,2.808-2.442,4.208-3.667c-10.175-3.826-20.824-4.847-31.924-3.127
			c-8.85,1.372-17.006,4.536-24.461,9.498c-1.96,1.305-3.417,3.027-4.237,5.249c-0.31,0.84-0.544,1.708-0.812,2.563
			c0,6.611,0.008,13.224-0.015,19.835c-0.002,0.526,0.106,0.632,0.632,0.631c15.494-0.01,30.988-0.012,46.482-0.01
			C45.824,87.378,45.109,84.88,45.01,82.071z"/>
	</g>
	<g id="TXi7Ey_1_">
		<g>
			<path fill="#EDE635" d="M43.625,61.634c0-0.151,0-0.304,0-0.456c0.365-0.583,0.827-0.668,1.505-0.493
				c4.34,1.12,8.399,0.453,12.111-2.088c1.574-1.078,2.859-2.501,4.295-3.745c0.649-0.562,1.177-1.276,2.002-1.621
				c0.183,0,0.365,0,0.549,0c0.396,0.136,0.697,0.408,1,0.684c1.446,1.322,2.854,2.69,4.352,3.953
				c2.479,2.09,5.367,3.19,8.621,3.315c1.543,0.06,3.047-0.132,4.531-0.542c0.798-0.221,1.054-0.089,1.409,0.628
				c0,0.092,0,0.183,0,0.274c-0.569,1.714-0.877,3.482-1.094,5.269c-0.188,1.556-0.217,3.124-0.237,4.687
				c-0.038,2.893-0.024,5.785,0.007,8.678c0.016,1.491-0.002,2.975-0.317,4.438c-1.176,5.456-4.332,9.33-9.396,11.627
				c-2.05,0.93-4.161,1.725-6.233,2.607c-0.883,0.377-1.805,0.669-2.642,1.151c-0.183,0-0.365,0-0.549,0
				c-0.057-0.126-0.189-0.135-0.295-0.179c-1.885-0.793-3.774-1.577-5.657-2.376c-1.993-0.846-4.059-1.548-5.829-2.85
				c-4.228-3.109-6.561-7.272-6.747-12.524c-0.118-3.343-0.012-6.692-0.027-10.039c-0.013-2.751-0.133-5.497-0.733-8.194
				C44.084,63.095,43.987,62.325,43.625,61.634z"/>
		</g>
	</g>
</g>
</svg>
