<?xml version="1.0" encoding="utf-8"?>
<!-- Generator: Adobe Illustrator 16.0.4, SVG Export Plug-In . SVG Version: 6.00 Build 0)  -->
<!DOCTYPE svg PUBLIC "-//W3C//DTD SVG 1.1//EN" "http://www.w3.org/Graphics/SVG/1.1/DTD/svg11.dtd">
<svg version="1.1" id="Layer_1" xmlns="http://www.w3.org/2000/svg" xmlns:xlink="http://www.w3.org/1999/xlink" x="0px" y="0px"
	 width="80px" height="50px" viewBox="0 0 80 50" enable-background="new 0 0 80 50" xml:space="preserve">
<path fill="#1A1A1A" d="M25.439,22.252c1.43,0.067,2.864,0.03,4.296,0.015c0.989-0.011,1.393-0.403,1.416-1.385
	c0.024-1.071,0.02-2.145,0.002-3.217c-0.018-1.164-0.371-1.5-1.567-1.509c-1.433-0.01-2.865-0.023-4.296,0.006
	c-0.583,0.012-0.803-0.16-0.786-0.782c0.042-1.53,0.023-3.063,0.009-4.595c-0.011-0.994-0.395-1.402-1.377-1.427
	c-1.126-0.028-2.254-0.026-3.382-0.002c-1.1,0.023-1.434,0.395-1.439,1.539c-0.006,1.47-0.041,2.942,0.016,4.411
	c0.028,0.72-0.235,0.879-0.89,0.86c-1.432-0.042-2.865-0.024-4.296-0.009c-1.105,0.012-1.477,0.378-1.503,1.496
	c-0.023,1.011-0.018,2.022,0,3.033c0.021,1.221,0.39,1.58,1.6,1.586c1.401,0.006,2.805,0.031,4.204-0.014
	c0.649-0.021,0.951,0.111,0.884,0.844c-0.068,0.728-0.015,1.469-0.015,2.204c0,0.796-0.011,1.593,0.004,2.389
	c0.016,0.927,0.42,1.351,1.333,1.368c1.128,0.021,2.255,0.015,3.382,0.004c1.073-0.01,1.475-0.419,1.482-1.511
	c0.01-1.439,0.043-2.881-0.014-4.318C24.473,22.494,24.647,22.214,25.439,22.252z"/>
<g>
	<path fill="#1A1A1A" d="M61.284,18.761c-0.012,2.084,1.636,3.764,3.69,3.762c2.054,0,3.699-1.681,3.689-3.762
		c-0.01-2.004-1.687-3.673-3.69-3.675C62.972,15.083,61.297,16.753,61.284,18.761z"/>
	<path fill="#1A1A1A" d="M57.278,30.194c2.005,0.05,3.774-1.68,3.79-3.708c0.014-2.001-1.647-3.713-3.641-3.75
		c-2.043-0.039-3.765,1.643-3.783,3.695C53.626,28.422,55.29,30.144,57.278,30.194z"/>
	<path fill="#1A1A1A" d="M46.054,18.791c-0.021,2.054,1.664,3.745,3.719,3.732c2.019-0.011,3.649-1.66,3.653-3.693
		c0.005-2.078-1.649-3.748-3.708-3.745C47.73,15.087,46.076,16.761,46.054,18.791z"/>
	<path fill="#1A1A1A" d="M61.066,11.17c-0.004-2.052-1.71-3.742-3.756-3.723c-2.007,0.018-3.665,1.694-3.665,3.706
		c-0.001,2.043,1.723,3.763,3.749,3.738C59.384,14.866,61.07,13.159,61.066,11.17z"/>
</g>
<path fill="#E11FDF" d="M21.51,0.022c3.746,0.492,6.952,2.056,9.505,4.886c0.275,0.304,0.55,0.43,0.947,0.429
	C37.311,5.33,42.658,5.33,48.005,5.338c0.396,0,0.676-0.121,0.947-0.43c2.194-2.5,5.006-3.925,8.186-4.692
	c0.52-0.125,2.979-0.207,3.147-0.187c2.17,0.25,4.068,1.133,5.755,2.502c2.171,1.76,3.849,3.946,5.238,6.348
	c4.541,7.855,7.165,16.369,8.523,25.312c0.16,1.052,0.228,9.316,0.186,9.632c-0.104,0.781-0.275,1.545-0.524,2.286
	c-0.522,1.546-1.261,2.923-2.87,3.615c-0.447,0.193-2.309,0.29-2.396,0.275c-2.533-0.44-4.627-1.773-6.61-3.312
	c-3.655-2.837-6.733-6.248-9.56-9.895c-0.343-0.443-0.698-0.611-1.25-0.61c-11.194,0.015-22.39,0.015-33.584,0
	c-0.552-0.001-0.913,0.16-1.254,0.605c-2.457,3.197-5.143,6.188-8.213,8.806c-2.044,1.743-4.195,3.323-6.806,4.143
	c-0.513,0.161-2.833,0.207-3.019,0.159c-1.062-0.274-1.856-0.9-2.464-1.803c-0.654-0.97-0.983-2.063-1.276-3.182
	c-0.175-0.67-0.202-9.242-0.112-9.929c0.812-6.211,2.414-12.216,4.72-18.027c1.683-4.24,3.639-8.343,6.591-11.87
	c2.271-2.713,4.947-4.773,8.632-5.081C20.053-0.003,21.361,0.003,21.51,0.022z M18.314,25.305c0,0.796-0.011,1.593,0.004,2.389
	c0.016,0.927,0.42,1.351,1.333,1.368c1.128,0.021,2.255,0.015,3.382,0.004c1.073-0.01,1.475-0.419,1.482-1.511
	c0.01-1.439,0.043-2.881-0.014-4.318c-0.028-0.742,0.146-1.021,0.938-0.983c1.43,0.067,2.864,0.03,4.296,0.015
	c0.989-0.011,1.393-0.403,1.416-1.385c0.024-1.071,0.02-2.145,0.002-3.217c-0.018-1.164-0.371-1.5-1.567-1.509
	c-1.433-0.01-2.865-0.023-4.296,0.006c-0.583,0.012-0.803-0.16-0.786-0.782c0.042-1.53,0.023-3.063,0.009-4.595
	c-0.011-0.994-0.395-1.402-1.377-1.427c-1.126-0.028-2.254-0.026-3.382-0.002c-1.1,0.023-1.434,0.395-1.439,1.539
	c-0.006,1.47-0.041,2.942,0.016,4.411c0.028,0.72-0.235,0.879-0.89,0.86c-1.432-0.042-2.865-0.024-4.296-0.009
	c-1.105,0.012-1.477,0.378-1.503,1.496c-0.023,1.011-0.018,2.022,0,3.033c0.021,1.221,0.39,1.58,1.6,1.586
	c1.401,0.006,2.805,0.031,4.204-0.014c0.649-0.021,0.951,0.111,0.884,0.844C18.261,23.829,18.314,24.57,18.314,25.305z
	 M53.644,26.431c-0.018,1.991,1.646,3.713,3.634,3.763c2.005,0.05,3.774-1.68,3.79-3.708c0.014-2.001-1.647-3.713-3.641-3.75
	C55.383,22.697,53.662,24.379,53.644,26.431z M57.31,7.447c-2.007,0.018-3.665,1.694-3.665,3.706
	c-0.001,2.043,1.723,3.763,3.749,3.738c1.991-0.025,3.676-1.732,3.673-3.721C61.062,9.118,59.356,7.429,57.31,7.447z M61.284,18.761
	c-0.012,2.084,1.636,3.764,3.69,3.762c2.054,0,3.699-1.681,3.689-3.762c-0.01-2.004-1.687-3.673-3.69-3.675
	C62.972,15.083,61.297,16.753,61.284,18.761z M53.426,18.831c0.005-2.078-1.649-3.748-3.708-3.745
	c-1.987,0.001-3.642,1.675-3.664,3.705c-0.021,2.054,1.664,3.745,3.719,3.732C51.792,22.513,53.422,20.864,53.426,18.831z"/>
</svg>
