<?xml version="1.0" encoding="utf-8"?>
<!-- Generator: Adobe Illustrator 16.0.4, SVG Export Plug-In . SVG Version: 6.00 Build 0)  -->
<!DOCTYPE svg PUBLIC "-//W3C//DTD SVG 1.1//EN" "http://www.w3.org/Graphics/SVG/1.1/DTD/svg11.dtd">
<svg version="1.1" id="Layer_1" xmlns="http://www.w3.org/2000/svg" xmlns:xlink="http://www.w3.org/1999/xlink" x="0px" y="0px"
	 width="38.086px" height="50px" viewBox="0 0 38.086 50" enable-background="new 0 0 38.086 50" xml:space="preserve">
<path d="M38.086,13.77c0,10.482,0,30.803,0,30.957s-0.07,0.598-0.079,0.657c-0.337,2.085-1.518,3.493-3.459,4.271
	C34.149,49.814,33.296,50,33.008,50S5.367,50,5.273,50s-0.599-0.07-0.658-0.079c-1.681-0.24-2.978-1.098-3.816-2.55
	C0.422,46.716,0,45.363,0,44.922S0,5.777,0,5.469s0.07-0.794,0.078-0.854c0.239-1.682,1.099-2.978,2.551-3.816
	C3.284,0.422,4.531,0,5.176,0S17.48,0,23.828,0c0.203,0.046,0.406,0.095,0.609,0.137c1.242,0.257,2.189,0.986,3.085,1.842
	c2.913,2.786,5.848,5.547,8.779,8.313c0.738,0.696,1.264,1.518,1.549,2.49C37.945,13.106,38.008,13.44,38.086,13.77z M22.854,2.928
	c-0.239,0-0.415,0-0.592,0c-5.581,0-11.162,0-16.743,0c-1.58,0-2.59,1.006-2.59,2.581c0,12.984,0,25.969,0,38.954
	c0,1.606,1.007,2.61,2.618,2.61c8.998,0.001,17.996,0.001,26.994,0c1.61,0,2.617-1.003,2.617-2.61c0.001-9.763,0-19.525,0-29.289
	c0-0.17,0-0.34,0-0.526c-0.258,0-0.437,0-0.615,0c-2.685,0-5.369,0.004-8.054-0.001c-2.178-0.004-3.628-1.465-3.635-3.65
	c-0.002-0.749,0-1.497,0-2.246C22.854,6.832,22.854,4.914,22.854,2.928z M33.584,11.721c-2.647-2.502-5.188-4.902-7.805-7.376
	c0,2.35,0.002,4.563-0.001,6.776c0,0.438,0.219,0.605,0.639,0.603c1.383-0.007,2.767-0.002,4.15-0.002
	C31.522,11.721,32.479,11.721,33.584,11.721z"/>
<path d="M18.742,22.459c-3.499,0-6.997,0.001-10.496,0c-0.834,0-1.389-0.352-1.607-1.006
	c-0.303-0.913,0.31-1.813,1.305-1.914c0.113-0.011,0.228-0.005,0.341-0.005c6.981,0,13.961,0,20.942,0
	c0.847,0,1.405,0.339,1.627,0.98c0.348,1.005-0.372,1.938-1.52,1.942c-2.18,0.009-4.361,0.003-6.541,0.003
	C21.443,22.459,20.092,22.459,18.742,22.459z"/>
<path d="M18.726,30.271c-3.499,0-6.997,0.001-10.496-0.001c-0.781,0-1.335-0.333-1.569-0.928
	c-0.365-0.933,0.263-1.898,1.299-1.993c0.097-0.009,0.195-0.004,0.293-0.004c6.997,0,13.994,0,20.991,0
	c0.815,0,1.374,0.334,1.602,0.949c0.361,0.976-0.331,1.948-1.43,1.971c-0.992,0.021-1.985,0.005-2.978,0.005
	C23.868,30.271,21.296,30.271,18.726,30.271z"/>
<path d="M11.54,38.084c-1.154,0-2.309,0.01-3.463-0.004c-0.754-0.01-1.275-0.426-1.465-1.119
	c-0.159-0.582,0.083-1.26,0.624-1.55c0.274-0.147,0.612-0.24,0.923-0.243c2.276-0.02,4.552-0.015,6.829-0.008
	c0.919,0.003,1.554,0.606,1.559,1.451c0.005,0.843-0.633,1.461-1.543,1.47C13.849,38.092,12.694,38.084,11.54,38.084z"/>
</svg>
