<?xml version="1.0" encoding="utf-8"?>
<!-- Generator: Adobe Illustrator 16.0.4, SVG Export Plug-In . SVG Version: 6.00 Build 0)  -->
<!DOCTYPE svg PUBLIC "-//W3C//DTD SVG 1.1//EN" "http://www.w3.org/Graphics/SVG/1.1/DTD/svg11.dtd">
<svg version="1.1" id="Layer_1" xmlns="http://www.w3.org/2000/svg" xmlns:xlink="http://www.w3.org/1999/xlink" x="0px" y="0px"
	 width="50px" height="50.155px" viewBox="0 0 50 50.155" enable-background="new 0 0 50 50.155" xml:space="preserve">
<g>
	<path d="M20.766,49.765c-9.018-1.783-15.462-6.877-18.871-15.394c-3.313-8.28-2.216-16.238,2.781-23.626
		c1.319-1.951,2.969-3.616,4.808-5.089c1.318-1.056,3.066-0.917,4.143,0.317c1.042,1.196,0.938,2.976-0.331,4.087
		c-1.322,1.159-2.609,2.341-3.64,3.773c-3.047,4.233-4.238,8.931-3.501,14.105c0.589,4.142,2.384,7.698,5.308,10.661
		c2.95,2.99,6.524,4.813,10.689,5.467c3.501,0.55,6.889,0.127,10.154-1.203c3.045-1.24,5.598-3.175,7.658-5.738
		c1.855-2.306,3.127-4.908,3.745-7.802c1.108-5.19,0.249-10.047-2.6-14.533c-1.097-1.728-2.476-3.208-4.06-4.505
		c-1.314-1.076-1.642-2.589-0.881-3.882c0.939-1.597,2.973-1.951,4.449-0.746c5.044,4.115,8.159,9.362,9.109,15.82
		c1.801,12.256-5.453,23.817-17.245,27.542c-1.8,0.568-3.644,0.928-5.531,1.05c-0.144,0.009-1.045,0.085-1.951,0.085
		C24.093,50.156,21.692,49.948,20.766,49.765z"/>
	<path d="M25.542,0c0.883,0.219,1.708,0.545,2.344,1.234c0.75,0.812,1.069,1.787,1.07,2.871
		c0.004,6.354,0.01,12.707-0.001,19.06c-0.003,2.015-1.082,3.447-2.933,3.98c-2.203,0.636-4.604-1.005-4.811-3.294
		c-0.039-0.422-0.062-0.849-0.062-1.272c-0.004-6.092-0.001-12.183-0.004-18.273c0-1.133,0.259-2.165,1.04-3.031
		C22.826,0.562,23.659,0.225,24.559,0C24.886,0,25.213,0,25.542,0z"/>
</g>
</svg>
