<svg width="102.18mm" height="205.37mm" version="1.1" viewBox="0 0 102.18 205.37" xmlns="http://www.w3.org/2000/svg" xmlns:xlink="http://www.w3.org/1999/xlink">
 <defs>
  <linearGradient id="linearGradient4624" x1="430.32" x2="925.3" y1="449.76" y2="370.97" gradientUnits="userSpaceOnUse">
   <stop stop-color="#4d4d4d" offset="0"/>
   <stop stop-color="#1a1a1a" offset="1"/>
  </linearGradient>
 </defs>
 <g transform="translate(-59.968 -21.326)">
  <path d="m65.295 37.141s0.37798-5.5751 4.6302-8.1265c4.2522-2.5513 14.08-1.8899 15.214-1.4174 1.1339 0.47247-0.06525 3.169 2.4568 5.2917 1.9533 1.644 3.3073 1.7009 4.8192 1.6064 2.4568-6e-6 39.026 0 39.026 0s2.1734-0.18899 3.4963-2.7403c1.2463-2.4036 0.28348-3.2128 1.7009-4.0632 1.4174-0.85045 17.954-2.0789 18.615 6.8981s1.2284 7.843 1.2284 7.843l-1.0121-16.924-16.469-1.9748-68.603 1.3229-6.1421 7.843z"/>
  <g>
   <path d="m76.526 22.662c-8.4402 0-15.235 7.9605-15.235 17.849v167.19c0 9.8882 6.7947 17.849 15.235 17.849h69.068c8.4402 0 15.235-7.9604 15.235-17.849v-167.19c0-9.8882-6.7947-17.849-15.235-17.849zm4.0955 4.1326h60.226c7.4637 0 13.473 4.4965 13.473 10.082v172.48c0 5.5856-6.0089 10.082-13.473 10.082h-60.226c-7.4637 0-13.473-4.4966-13.473-10.082v-172.48c0-5.5857 6.0089-10.082 13.473-10.082z"/>
   <path transform="scale(.26458)" d="m285.76 80.602c-32.748 1e-6 -59.111 30.455-59.111 68.285v639.63c0 37.83 26.364 68.285 59.111 68.285h267.98c32.748 0 59.111-30.455 59.111-68.285v-639.63c0-37.83-26.364-68.285-59.111-68.285zm15.891 15.811h233.68c28.959 0 52.273 17.203 52.273 38.572v659.86c0 21.37-23.314 38.572-52.273 38.572h-233.68c-28.959 0-52.273-17.203-52.273-38.572v-659.86c0-21.37 23.314-38.572 52.273-38.572z" fill="url(#linearGradient4624)"/>
   <ellipse cx="121.67" cy="29.63" rx="1.2695" ry="1.2361" stroke="#4e4e4e" stroke-linecap="round" stroke-linejoin="round" stroke-width=".6"/>
  </g>
  <path d="m105.57 29.53c0.24398 0.13364 10.491 0 10.491 0" fill="none" stroke="#3a3a3a" stroke-linecap="round" stroke-width="1.665"/>
 </g>
</svg>
