<?xml version="1.0" encoding="utf-8"?>
<!-- Generator: Adobe Illustrator 16.0.4, SVG Export Plug-In . SVG Version: 6.00 Build 0)  -->
<!DOCTYPE svg PUBLIC "-//W3C//DTD SVG 1.1//EN" "http://www.w3.org/Graphics/SVG/1.1/DTD/svg11.dtd">
<svg version="1.1" id="Layer_1" xmlns="http://www.w3.org/2000/svg" xmlns:xlink="http://www.w3.org/1999/xlink" x="0px" y="0px"
	 width="84px" height="100px" viewBox="0 0 84 100" enable-background="new 0 0 84 100" xml:space="preserve">
<g>
	<g>
		<path d="M41.667,0.001c1.136,0.233,2.283,0.433,3.411,0.705c9.15,2.216,16.083,10.257,16.916,19.604
			c1.049,11.771-6.674,22.222-18.247,24.313c-8.279,1.496-15.431-0.947-21.087-7.207c-7.413-8.204-7.626-20.724-0.56-29.187
			c3.804-4.556,8.697-7.242,14.606-8.047c0.193-0.026,0.424,0.05,0.55-0.182C38.725,0.001,40.195,0.001,41.667,0.001z"/>
		<path fill="#1A1A1A" d="M41.921,78.776c1.101,0.053,2.208,0.023,3.312,0.012c0.763-0.01,1.074-0.309,1.092-1.061
			c0.019-0.819,0.015-1.641,0.002-2.461c-0.014-0.89-0.287-1.146-1.209-1.154c-1.105-0.006-2.21-0.018-3.312,0.006
			c-0.449,0.009-0.619-0.123-0.606-0.598c0.032-1.172,0.019-2.343,0.007-3.516c-0.008-0.76-0.305-1.072-1.062-1.091
			c-0.869-0.022-1.739-0.021-2.608-0.002c-0.848,0.019-1.106,0.302-1.11,1.177c-0.005,1.125-0.032,2.251,0.012,3.374
			c0.021,0.552-0.181,0.672-0.686,0.658c-1.104-0.032-2.209-0.019-3.313-0.007c-0.853,0.009-1.139,0.289-1.159,1.145
			c-0.019,0.773-0.015,1.547-0.001,2.32c0.017,0.933,0.3,1.208,1.233,1.212c1.081,0.005,2.163,0.024,3.243-0.011
			c0.5-0.018,0.733,0.085,0.681,0.645c-0.052,0.559-0.012,1.124-0.011,1.686c0,0.609-0.009,1.22,0.002,1.828
			c0.013,0.709,0.325,1.033,1.028,1.047c0.869,0.016,1.739,0.011,2.608,0.002c0.828-0.008,1.138-0.32,1.144-1.155
			c0.008-1.101,0.033-2.204-0.011-3.304C41.175,78.962,41.31,78.749,41.921,78.776z"/>
	</g>
	<g>
		<path fill="#1A1A1A" d="M57.819,76.13c-0.019,1.571,1.283,2.865,2.867,2.855c1.558-0.01,2.815-1.271,2.818-2.825
			c0.003-1.589-1.271-2.866-2.859-2.864C59.112,73.297,57.836,74.577,57.819,76.13z"/>
		<path fill="#1A1A1A" d="M66.476,84.853c1.547,0.039,2.912-1.285,2.922-2.836c0.012-1.529-1.27-2.84-2.808-2.869
			c-1.575-0.028-2.903,1.258-2.917,2.826C63.66,83.496,64.942,84.813,66.476,84.853z"/>
		<path fill="#1A1A1A" d="M69.565,76.106c-0.008,1.595,1.262,2.879,2.847,2.879c1.583-0.002,2.854-1.286,2.846-2.879
			c-0.008-1.531-1.301-2.81-2.846-2.812C70.868,73.294,69.575,74.571,69.565,76.106z"/>
		<path fill="#1A1A1A" d="M69.397,70.301c-0.002-1.569-1.318-2.862-2.896-2.848c-1.547,0.014-2.826,1.295-2.827,2.834
			c0,1.563,1.329,2.878,2.892,2.858C68.101,73.128,69.401,71.821,69.397,70.301z"/>
	</g>
	<g>
		<path fill="#1A1A1A" d="M63.505,76.16c0.003-1.589-1.271-2.866-2.859-2.864c-1.533,0.001-2.81,1.281-2.826,2.834
			c-0.019,1.571,1.283,2.865,2.867,2.855C62.245,78.978,63.502,77.715,63.505,76.16z"/>
		<path fill="#1A1A1A" d="M35.751,74.122c-1.104-0.032-2.209-0.018-3.313-0.007c-0.853,0.009-1.139,0.29-1.159,1.145
			c-0.019,0.773-0.015,1.546-0.001,2.32c0.017,0.935,0.3,1.208,1.233,1.213c1.081,0.005,2.163,0.024,3.243-0.011
			c0.5-0.018,0.733,0.085,0.681,0.645c-0.052,0.557-0.011,1.123-0.011,1.686c0,0.609-0.009,1.22,0.002,1.828
			c0.013,0.709,0.325,1.033,1.028,1.047c0.869,0.016,1.739,0.011,2.608,0.002c0.827-0.008,1.137-0.32,1.144-1.155
			c0.007-1.101,0.033-2.204-0.011-3.304c-0.023-0.566,0.112-0.78,0.724-0.752c1.101,0.053,2.208,0.023,3.312,0.012
			c0.763-0.01,1.074-0.309,1.092-1.061c0.019-0.819,0.015-1.641,0.002-2.461c-0.014-0.89-0.287-1.146-1.209-1.153
			c-1.105-0.007-2.211-0.019-3.313,0.005c-0.449,0.009-0.619-0.123-0.606-0.598c0.032-1.17,0.019-2.344,0.007-3.516
			c-0.008-0.76-0.305-1.072-1.062-1.092c-0.869-0.021-1.739-0.02-2.608-0.002c-0.848,0.018-1.106,0.302-1.11,1.177
			c-0.005,1.125-0.032,2.251,0.012,3.374C36.459,74.017,36.256,74.137,35.751,74.122z"/>
		<path fill="#1A1A1A" d="M66.476,84.853c1.547,0.039,2.912-1.285,2.922-2.836c0.012-1.531-1.27-2.84-2.808-2.869
			c-1.575-0.028-2.903,1.258-2.917,2.826C63.66,83.496,64.942,84.813,66.476,84.853z"/>
		<path d="M22.339,88.512c0.627-4.75,1.861-9.344,3.64-13.788c1.297-3.244,2.807-6.383,5.083-9.08
			c1.751-2.076,3.816-3.65,6.658-3.886c0.045-0.003,1.055,0.001,1.168,0.017c2.89,0.375,5.361,1.571,7.331,3.735
			c0.213,0.233,0.426,0.329,0.73,0.328c4.125-0.005,8.25-0.005,12.373,0c0.307,0,0.521-0.092,0.73-0.329
			c1.693-1.91,3.861-3.002,6.313-3.589c0.399-0.096,2.298-0.158,2.427-0.144c1.674,0.191,3.139,0.867,4.439,1.914
			c1.674,1.348,2.969,3.019,4.039,4.856c0.652,1.119,1.252,2.256,1.807,3.409c0-0.934,0-1.866,0-2.799
			c-0.188-0.108-0.143-0.301-0.172-0.467c-0.418-2.306-1.372-4.338-3.061-6c-1.931-1.897-4.295-3.164-6.648-4.407
			c-12.475-6.585-25.705-8.734-39.645-6.579c-8.858,1.367-17.022,4.527-24.485,9.479c-1.962,1.303-3.42,3.022-4.241,5.238
			c-0.311,0.838-0.544,1.705-0.814,2.559c0,6.6,0.008,13.198-0.014,19.797c-0.002,0.525,0.106,0.631,0.632,0.631
			c7.226-0.004,14.451-0.006,21.676-0.008C22.316,88.94,22.327,88.614,22.339,88.512z"/>
		<path fill="#1A1A1A" d="M75.258,76.106c-0.008-1.531-1.301-2.81-2.846-2.812c-1.543-0.002-2.836,1.274-2.845,2.812
			c-0.01,1.595,1.261,2.879,2.846,2.879C73.996,78.983,75.267,77.699,75.258,76.106z"/>
		<path fill="#1A1A1A" d="M69.397,70.301c-0.002-1.569-1.318-2.862-2.896-2.847c-1.547,0.014-2.826,1.295-2.827,2.834
			c0,1.562,1.329,2.878,2.892,2.859C68.101,73.128,69.401,71.821,69.397,70.301z"/>
	</g>
	<path fill="#E11FDF" d="M38.89,61.774c2.89,0.375,5.361,1.571,7.332,3.735c0.211,0.233,0.424,0.329,0.729,0.328
		c4.125-0.005,8.25-0.005,12.373,0c0.307,0,0.522-0.092,0.731-0.329c1.692-1.91,3.86-3.002,6.312-3.589
		c0.4-0.096,2.298-0.158,2.427-0.144c1.674,0.191,3.138,0.867,4.438,1.914c1.675,1.348,2.97,3.019,4.041,4.856
		c3.502,6.009,5.525,12.521,6.574,19.361c0.123,0.805,0.174,7.125,0.143,7.366c-0.081,0.598-0.213,1.183-0.404,1.75
		c-0.402,1.182-0.973,2.234-2.213,2.765c-0.346,0.147-1.781,0.221-1.848,0.21c-1.953-0.337-3.569-1.357-5.098-2.533
		c-2.82-2.17-5.193-4.779-7.375-7.568c-0.264-0.34-0.537-0.467-0.964-0.467c-8.634,0.012-17.269,0.012-25.901,0
		c-0.425,0-0.703,0.122-0.967,0.463c-1.895,2.445-3.966,4.733-6.334,6.735c-1.577,1.333-3.236,2.541-5.25,3.168
		c-0.396,0.123-2.185,0.157-2.328,0.121c-0.82-0.209-1.432-0.688-1.901-1.378c-0.504-0.742-0.757-1.578-0.983-2.434
		c-0.135-0.513-0.155-7.068-0.086-7.595c0.627-4.75,1.861-9.344,3.64-13.788c1.297-3.244,2.807-6.383,5.083-9.08
		c1.751-2.076,3.816-3.65,6.658-3.886C37.767,61.755,38.775,61.76,38.89,61.774z M36.425,81.112c0,0.608-0.009,1.219,0.002,1.828
		c0.013,0.707,0.325,1.033,1.028,1.045c0.869,0.017,1.739,0.012,2.608,0.002c0.827-0.008,1.137-0.319,1.144-1.154
		c0.007-1.102,0.033-2.204-0.011-3.303c-0.023-0.567,0.112-0.781,0.724-0.752c1.102,0.052,2.208,0.022,3.311,0.011
		c0.764-0.009,1.076-0.31,1.093-1.06c0.019-0.82,0.015-1.642,0.002-2.461c-0.015-0.891-0.287-1.147-1.209-1.154
		c-1.104-0.008-2.21-0.018-3.312,0.005c-0.449,0.009-0.619-0.123-0.606-0.599c0.032-1.17,0.019-2.343,0.007-3.515
		c-0.008-0.76-0.305-1.073-1.062-1.092c-0.869-0.022-1.739-0.021-2.608-0.002c-0.848,0.019-1.106,0.302-1.11,1.177
		c-0.005,1.125-0.032,2.251,0.012,3.374c0.021,0.552-0.181,0.673-0.686,0.658c-1.104-0.032-2.209-0.019-3.313-0.007
		c-0.853,0.009-1.139,0.289-1.159,1.145c-0.019,0.773-0.015,1.547-0.001,2.32c0.017,0.934,0.3,1.208,1.233,1.213
		c1.081,0.005,2.163,0.023,3.243-0.012c0.5-0.016,0.733,0.086,0.681,0.646C36.384,79.983,36.425,80.55,36.425,81.112z
		 M63.674,81.974c-0.014,1.522,1.269,2.84,2.802,2.879c1.547,0.039,2.912-1.285,2.922-2.836c0.012-1.531-1.27-2.84-2.808-2.869
		C65.015,79.118,63.688,80.403,63.674,81.974z M66.501,67.454c-1.547,0.014-2.826,1.295-2.827,2.834
		c0,1.562,1.329,2.878,2.892,2.859c1.535-0.02,2.836-1.326,2.832-2.847C69.396,68.731,68.079,67.438,66.501,67.454z M69.565,76.106
		c-0.008,1.595,1.262,2.879,2.847,2.879c1.583-0.002,2.854-1.286,2.846-2.879c-0.008-1.531-1.301-2.81-2.846-2.812
		C70.868,73.294,69.575,74.571,69.565,76.106z M63.505,76.16c0.003-1.589-1.271-2.866-2.859-2.864
		c-1.533,0.001-2.81,1.281-2.826,2.834c-0.019,1.571,1.283,2.865,2.867,2.855C62.245,78.978,63.502,77.715,63.505,76.16z"/>
</g>
</svg>
