<?xml version="1.0" encoding="utf-8"?>
<!-- Generator: Adobe Illustrator 16.0.4, SVG Export Plug-In . SVG Version: 6.00 Build 0)  -->
<!DOCTYPE svg PUBLIC "-//W3C//DTD SVG 1.1//EN" "http://www.w3.org/Graphics/SVG/1.1/DTD/svg11.dtd">
<svg version="1.1" id="Layer_1" xmlns="http://www.w3.org/2000/svg" xmlns:xlink="http://www.w3.org/1999/xlink" x="0px" y="0px"
	 width="99.866px" height="100px" viewBox="0 0 99.866 100" enable-background="new 0 0 99.866 100" xml:space="preserve">
<path fill-rule="evenodd" clip-rule="evenodd" d="M24.75,23.242c0.142-0.315,0.171-0.456,0.254-0.55
	c0.176-0.198,0.371-0.382,0.573-0.554c8.777-7.443,18.911-10.562,30.248-8.679c21.071,3.499,34.369,22.774,30.518,43.809
	C82.976,75.646,65.07,88.935,46.493,86.939c-7.136-0.768-13.502-3.297-19.215-7.604c-2.535-1.91-4.681-1.731-6.969,0.431
	c-0.483,0.456-0.949,0.934-1.414,1.41c-2.928,2.995-2.75,5.841,0.628,8.398c11.155,8.443,23.723,11.849,37.553,9.885
	c27.833-3.952,46.703-30.016,42.098-57.88C93.487,7.179,54.05-10.989,24.314,7.143c-3.146,1.918-6.031,4.264-9.139,6.482
	c-2.997-3.008-6.055-6.064-9.097-9.136c-1.14-1.151-2.346-1.99-4.064-1.265C0.333,3.935-0.005,5.308,0,6.967
	c0.029,9.186,0.009,18.372,0.018,27.558c0.003,3.105,1.069,4.182,4.223,4.188c9.119,0.018,18.239,0,27.358,0.012
	c1.616,0.002,3.123-0.236,3.851-1.895c0.753-1.712,0.024-3.046-1.232-4.263C31.019,29.468,27.868,26.319,24.75,23.242z"/>
<path fill-rule="evenodd" clip-rule="evenodd" d="M43.563,42.12c0,4.259-0.033,8.52,0.034,12.777
	c0.011,0.707,0.248,1.67,0.741,2.067c4.144,3.337,8.325,6.635,12.595,9.809c2.12,1.575,4.678,1.123,6.453-0.865
	c0.62-0.693,1.182-1.44,1.734-2.19c2.04-2.759,1.721-5.378-0.941-7.502c-2.185-1.741-4.465-3.37-6.568-5.204
	c-0.635-0.553-1.151-1.613-1.164-2.45c-0.096-6.321-0.032-12.645-0.062-18.967c-0.015-3.332-1.836-5.14-5.182-5.25
	c-0.797-0.026-1.598-0.025-2.396-0.001c-3.45,0.104-5.218,1.909-5.237,5.396C43.547,33.867,43.564,37.994,43.563,42.12z"/>
</svg>
