<?xml version="1.0" encoding="utf-8"?>
<!-- Generator: Adobe Illustrator 16.0.4, SVG Export Plug-In . SVG Version: 6.00 Build 0)  -->
<!DOCTYPE svg PUBLIC "-//W3C//DTD SVG 1.1//EN" "http://www.w3.org/Graphics/SVG/1.1/DTD/svg11.dtd">
<svg version="1.1" id="Layer_1" xmlns="http://www.w3.org/2000/svg" xmlns:xlink="http://www.w3.org/1999/xlink" x="0px" y="0px"
	 width="132px" height="60px" viewBox="0 0 132 60" enable-background="new 0 0 132 60" xml:space="preserve">
<path fill-rule="evenodd" clip-rule="evenodd" fill="#09BCC5" d="M132,30c0,0-20.022,19.972-29.177,29.18
	c-0.968,0.971-1.509,1.183-2.568,0.066c-2.979-3.137-6.048-6.196-9.191-9.166c-1.105-1.041-0.96-1.598,0.051-2.558
	c3.068-2.924,6.037-5.95,9.458-9.349c-1.321,0-2.069,0-2.81,0c-54.007,0-41.234,0-95.242-0.003c-0.841,0-1.68-0.026-2.521-0.04
	C0,32.71,0,27.29,0,21.866c0.841-0.013,1.68-0.039,2.521-0.039c54.008,0,41.235,0,95.242,0c0.705,0,1.411,0,2.11,0
	c0.283-0.744-0.34-0.962-0.659-1.283c-2.678-2.71-5.337-5.44-8.1-8.066c-1.011-0.959-1.155-1.517-0.05-2.56
	c3.144-2.973,6.212-6.03,9.191-9.167c1.06-1.115,1.601-0.902,2.568,0.069C111.978,10.029,132,30,132,30z"/>
</svg>
