<?xml version="1.0" encoding="utf-8"?>
<!-- Generator: Adobe Illustrator 16.0.4, SVG Export Plug-In . SVG Version: 6.00 Build 0)  -->
<!DOCTYPE svg PUBLIC "-//W3C//DTD SVG 1.1//EN" "http://www.w3.org/Graphics/SVG/1.1/DTD/svg11.dtd">
<svg version="1.1" id="Layer_1" xmlns="http://www.w3.org/2000/svg" xmlns:xlink="http://www.w3.org/1999/xlink" x="0px" y="0px"
	 width="50px" height="50px" viewBox="0 0 50 50" enable-background="new 0 0 50 50" xml:space="preserve">
<path d="M50,21.875c0,2.083,0,4.167,0,6.25c-0.214,0.772-0.747,1.14-1.512,1.315c-1.66,0.379-3.306,0.82-4.963,1.21
	c-0.3,0.07-0.429,0.221-0.532,0.483c-0.309,0.784-0.627,1.565-0.97,2.334c-0.118,0.264-0.125,0.456,0.034,0.714
	c0.767,1.244,1.509,2.503,2.259,3.758c0.56,0.938,0.488,1.525-0.29,2.307c-1.216,1.221-2.435,2.44-3.654,3.659
	c-0.788,0.787-1.376,0.851-2.346,0.268c-1.224-0.737-2.456-1.461-3.673-2.21c-0.254-0.156-0.447-0.148-0.711-0.029
	c-0.827,0.373-1.667,0.719-2.509,1.058c-0.26,0.104-0.413,0.231-0.483,0.532c-0.389,1.658-0.831,3.303-1.209,4.963
	c-0.174,0.766-0.542,1.298-1.315,1.512c-2.083,0-4.167,0-6.25,0c-0.747-0.209-1.132-0.705-1.305-1.462
	c-0.381-1.676-0.828-3.338-1.221-5.012c-0.071-0.3-0.222-0.428-0.483-0.532c-0.828-0.33-1.654-0.667-2.467-1.032
	c-0.251-0.113-0.431-0.113-0.665,0.03c-1.233,0.754-2.472,1.5-3.717,2.233c-0.889,0.523-1.498,0.439-2.227-0.286
	c-1.233-1.227-2.463-2.458-3.691-3.69c-0.77-0.772-0.841-1.377-0.282-2.305c0.729-1.21,1.451-2.425,2.188-3.631
	c0.15-0.245,0.16-0.437,0.035-0.71c-0.371-0.81-0.703-1.639-1.031-2.468c-0.104-0.263-0.235-0.411-0.534-0.481
	c-1.674-0.395-3.335-0.841-5.012-1.223C0.707,29.257,0.209,28.873,0,28.125c0-2.083,0-4.167,0-6.25
	c0.209-0.748,0.706-1.132,1.462-1.305c1.676-0.382,3.343-0.81,5.006-1.247c0.192-0.05,0.407-0.245,0.492-0.429
	c0.326-0.706,0.586-1.441,0.906-2.151c0.115-0.256,0.091-0.436-0.049-0.666c-0.844-1.388-1.673-2.784-2.505-4.179
	c-0.545-0.914-0.473-1.51,0.278-2.264c1.216-1.221,2.436-2.438,3.656-3.657c0.809-0.808,1.404-0.876,2.388-0.284
	c1.308,0.787,2.622,1.565,3.922,2.365c0.25,0.154,0.443,0.169,0.714,0.046c0.856-0.387,1.725-0.747,2.597-1.099
	c0.261-0.105,0.412-0.233,0.482-0.533c0.394-1.674,0.841-3.335,1.222-5.012C20.742,0.705,21.128,0.209,21.875,0
	c2.083,0,4.167,0,6.25,0c0.748,0.209,1.135,0.707,1.307,1.463c0.382,1.678,0.809,3.346,1.245,5.011
	c0.05,0.194,0.245,0.413,0.429,0.498C31.917,7.344,32.742,7.687,33.577,8c0.189,0.07,0.48,0.048,0.654-0.053
	c1.295-0.747,2.574-1.524,3.856-2.293c0.888-0.532,1.506-0.464,2.231,0.259c1.221,1.218,2.44,2.439,3.659,3.66
	c0.848,0.849,0.915,1.373,0.291,2.423c-0.739,1.244-1.479,2.487-2.237,3.72c-0.165,0.267-0.167,0.477-0.038,0.761
	c0.356,0.782,0.683,1.579,0.994,2.38c0.112,0.289,0.269,0.425,0.578,0.498c1.66,0.392,3.307,0.835,4.969,1.214
	C49.293,20.742,49.791,21.126,50,21.875z M24.989,14.747c-5.655,0.006-10.232,4.58-10.243,10.235
	c-0.01,5.67,4.592,10.276,10.261,10.271c5.651-0.005,10.236-4.586,10.246-10.238C35.262,19.345,30.66,14.741,24.989,14.747z"/>
</svg>
