<?xml version="1.0" encoding="utf-8"?>
<!-- Generator: Adobe Illustrator 16.0.4, SVG Export Plug-In . SVG Version: 6.00 Build 0)  -->
<!DOCTYPE svg PUBLIC "-//W3C//DTD SVG 1.1//EN" "http://www.w3.org/Graphics/SVG/1.1/DTD/svg11.dtd">
<svg version="1.1" id="Layer_1" xmlns="http://www.w3.org/2000/svg" xmlns:xlink="http://www.w3.org/1999/xlink" x="0px" y="0px"
	 width="50px" height="50px" viewBox="0 0 50 50" enable-background="new 0 0 50 50" xml:space="preserve">
<path d="M0,24.414c0-0.065,0-0.13,0-0.195c0.163-0.721,0.456-1.371,1.17-1.7c0.361-0.166,0.77-0.23,1.22-0.359
	c-0.06-0.372-0.105-0.787-0.195-1.192c-0.523-2.368,1.016-3.774,2.837-3.776c3.672-0.003,7.345-0.005,11.017,0.002
	c1.23,0.002,2.253,0.467,3.05,1.412c0.894,1.061,1.809,2.103,2.686,3.177c0.283,0.347,0.574,0.489,1.032,0.488
	c5.64-0.017,11.279-0.013,16.919-0.009c1.229,0.001,2.096,0.729,2.28,1.916c0.208,1.347,0.4,2.695,0.598,4.043
	c0.438,2.985,0.871,5.971,1.314,8.955c0.475,3.192,0.968,6.382,1.432,9.576c0.076,0.523,0.141,1.081,0.04,1.59
	c-0.196,0.991-0.951,1.458-1.897,1.658c-12.435,0-24.869,0-37.303,0c-0.045-0.019-0.088-0.047-0.135-0.056
	c-1.442-0.285-2.184-0.979-2.45-2.413c-0.255-1.371-0.448-2.753-0.662-4.131c-0.413-2.662-0.821-5.323-1.233-7.985
	c-0.345-2.227-0.69-4.454-1.038-6.681C0.457,27.293,0.228,25.854,0,24.414z"/>
<path d="M39.862,0c0.044,0.02,0.087,0.047,0.134,0.059c1.206,0.288,1.787,0.973,1.789,2.212
	c0.01,5.583,0.002,11.166,0.011,16.748c0,0.357-0.103,0.488-0.474,0.48c-0.93-0.021-1.861-0.007-2.833-0.007
	c0-5.43,0-10.795,0-16.193c-8.053,0-16.064,0-24.103,0c0,3.851,0,7.657,0,11.503c-1.181,0-2.335,0-3.565,0c0-0.174,0-0.361,0-0.548
	c0-3.825,0-7.649,0-11.475c0-1.677,0.48-2.32,2.072-2.778C21.883,0,30.873,0,39.862,0z"/>
<path d="M50,21.094c-0.196,1.264-0.397,2.525-0.587,3.79c-0.349,2.325-0.69,4.652-1.035,6.979
	c-0.345,2.327-0.689,4.653-1.036,6.979c-0.1,0.673-0.209,1.345-0.314,2.017c-0.049,0.006-0.098,0.012-0.146,0.018
	c-1-7.318-2.001-14.637-3.007-21.995c1.519,0,2.895-0.07,4.261,0.022c1.106,0.075,1.65,0.869,1.864,1.897
	C50,20.898,50,20.996,50,21.094z"/>
<path d="M26.324,7.022c2.294,0,4.589-0.006,6.883,0.004c0.901,0.004,1.585,0.641,1.721,1.561
	c0.118,0.799-0.466,1.684-1.275,1.907c-0.185,0.051-0.387,0.057-0.582,0.057c-4.49,0.003-8.98,0.004-13.471,0.001
	c-1.08-0.001-1.855-0.76-1.843-1.785c0.013-1.012,0.771-1.743,1.831-1.745C21.834,7.019,24.079,7.021,26.324,7.022z"/>
<path d="M17.827,14.987c0.2-0.808,0.73-1.277,1.528-1.352c0.146-0.014,0.294-0.016,0.441-0.016
	c4.375,0,8.75-0.001,13.125,0c1.048,0,1.679,0.416,1.927,1.248c0.356,1.196-0.47,2.303-1.783,2.309c-3.9,0.018-7.8,0.008-11.7,0.001
	c-0.131,0-0.309-0.045-0.387-0.136c-0.823-0.95-1.838-1.599-3.039-1.972C17.896,15.056,17.862,15.014,17.827,14.987z"/>
</svg>
