<?xml version="1.0" encoding="utf-8"?>
<!-- Generator: Adobe Illustrator 16.0.4, SVG Export Plug-In . SVG Version: 6.00 Build 0)  -->
<!DOCTYPE svg PUBLIC "-//W3C//DTD SVG 1.1//EN" "http://www.w3.org/Graphics/SVG/1.1/DTD/svg11.dtd">
<svg version="1.1" id="Layer_1" xmlns="http://www.w3.org/2000/svg" xmlns:xlink="http://www.w3.org/1999/xlink" x="0px" y="0px"
	 width="50px" height="50px" viewBox="0 0 50 50" enable-background="new 0 0 50 50" xml:space="preserve">
<path d="M25.781,0c0.923,0.163,1.86,0.27,2.766,0.499c5.005,1.262,9.012,5.746,9.861,10.81
	c0.444,2.647-0.131,5.088-1.06,7.511c-1.615,4.213-3.745,8.173-5.973,12.081c-1.054,1.849-2.138,3.682-3.258,5.491
	c-1.047,1.69-3.161,2.25-4.861,1.278c-0.517-0.295-1.03-0.738-1.338-1.24c-3.324-5.415-6.549-10.89-8.933-16.801
	c-0.615-1.525-1.107-3.125-1.434-4.735c-0.43-2.119-0.034-4.222,0.784-6.201c1.925-4.662,5.405-7.479,10.349-8.479
	C23.189,0.11,23.707,0.069,24.219,0C24.74,0,25.26,0,25.781,0z M24.982,7.19c-3.32,0.048-5.575,2.859-5.474,5.706
	c0.104,2.897,2.581,5.306,5.605,5.265c3.118-0.042,5.458-2.73,5.372-5.643C30.4,9.612,27.927,7.165,24.982,7.19z"/>
<path d="M0,40.137c0.436-2.471,2.168-3.862,4.187-5.007c0.748-0.424,1.608-0.217,2.012,0.454
	c0.411,0.682,0.162,1.545-0.548,2.035c-0.68,0.469-1.388,0.918-1.987,1.479c-0.99,0.927-0.997,1.798-0.094,2.808
	c0.897,1.004,2.072,1.612,3.281,2.143c2.768,1.214,5.688,1.873,8.661,2.345c3.803,0.603,7.632,0.774,11.472,0.664
	c4.919-0.141,9.776-0.72,14.459-2.333c1.601-0.551,3.153-1.217,4.473-2.318c1.537-1.281,1.558-2.398,0.029-3.693
	c-0.493-0.417-1.062-0.747-1.604-1.102c-0.86-0.562-1.007-1.674-0.289-2.327c0.471-0.428,1.039-0.513,1.585-0.237
	c1.41,0.711,2.695,1.617,3.531,2.985c0.387,0.635,0.562,1.399,0.833,2.104c0,0.261,0,0.521,0,0.781
	c-0.377,2.314-1.903,3.754-3.822,4.806c-1.3,0.713-2.672,1.332-4.073,1.818c-4.022,1.396-8.204,1.996-12.438,2.273
	C28.666,49.88,27.663,49.938,26.66,50c-1.107,0-2.213,0-3.32,0c-0.143-0.022-0.286-0.062-0.429-0.064
	c-3.266-0.075-6.506-0.396-9.715-1.01c-2.887-0.552-5.721-1.294-8.357-2.632C2.545,45.13,0.489,43.72,0,40.918
	C0,40.658,0,40.397,0,40.137z"/>
<path d="M38.647,38.274c-0.961-0.872-2.078-1.252-3.216-1.561c-1.14-0.31-2.298-0.549-3.517-0.835
	c0.489-0.83,0.974-1.662,1.475-2.484c0.04-0.064,0.204-0.096,0.297-0.078c1.946,0.386,3.876,0.839,5.608,1.854
	c0.539,0.316,1.056,0.722,1.468,1.188c1.071,1.209,0.999,2.784-0.105,3.961c-0.741,0.79-1.674,1.277-2.656,1.682
	c-2.057,0.847-4.223,1.255-6.412,1.553c-2.811,0.383-5.639,0.491-8.469,0.379c-3.706-0.147-7.384-0.521-10.895-1.842
	c-1.008-0.379-1.965-0.861-2.744-1.631c-1.389-1.373-1.329-3.244,0.146-4.528c1.312-1.142,2.916-1.669,4.547-2.127
	c0.67-0.188,1.355-0.329,2.039-0.462c0.14-0.027,0.384,0.028,0.447,0.128c0.488,0.783,0.944,1.586,1.423,2.405
	c-1.196,0.282-2.363,0.525-3.511,0.838c-1.138,0.31-2.259,0.684-3.26,1.594c0.463,0.286,0.838,0.562,1.25,0.763
	c1.771,0.864,3.683,1.246,5.61,1.532c2.673,0.396,5.367,0.557,8.07,0.468c3.204-0.105,6.389-0.371,9.469-1.334
	c0.769-0.24,1.5-0.604,2.235-0.942C38.186,38.684,38.38,38.477,38.647,38.274z"/>
</svg>
