<?xml version="1.0" encoding="utf-8"?>
<!-- Generator: Adobe Illustrator 16.0.4, SVG Export Plug-In . SVG Version: 6.00 Build 0)  -->
<!DOCTYPE svg PUBLIC "-//W3C//DTD SVG 1.1//EN" "http://www.w3.org/Graphics/SVG/1.1/DTD/svg11.dtd">
<svg version="1.1" id="Layer_1" xmlns="http://www.w3.org/2000/svg" xmlns:xlink="http://www.w3.org/1999/xlink" x="0px" y="0px"
	 width="50px" height="50px" viewBox="0 0 50 50" enable-background="new 0 0 50 50" xml:space="preserve">
<path d="M25,0c0.626,0,1.327,0.054,1.406,0.062c1.032,0.115,2.078,0.155,3.093,0.352
	c6.756,1.31,12.132,4.784,16.082,10.419c2.243,3.2,3.619,6.758,4.143,10.636C49.831,22.254,50,24.219,50,25
	s-0.062,1.518-0.083,1.691c-0.109,0.935-0.153,1.881-0.333,2.802c-1.308,6.714-4.742,12.08-10.334,16.027
	c-3.234,2.282-6.831,3.689-10.763,4.209C27.718,49.831,25.315,50,25,50s-1.521-0.062-1.697-0.082c-0.934-0.11-1.88-0.155-2.8-0.333
	c-6.57-1.276-11.854-4.608-15.801-10.018c-2.264-3.103-3.707-6.566-4.321-10.362C0.218,28.2,0,25.817,0,25s0.057-1.552,0.084-1.743
	c0.18-1.267,0.27-2.554,0.555-3.797C1.995,13.554,5.114,8.755,9.921,5.077c3.402-2.604,7.243-4.205,11.493-4.795
	C22.217,0.17,24.374,0,25,0z M37.688,15.746c-0.019-0.782-0.25-1.497-0.742-2.117c-1.312-1.654-3.59-1.77-5.141-0.241
	c-1.807,1.783-3.591,3.588-5.387,5.382c-0.971,0.97-1.862,0.972-2.827,0.008c-1.807-1.806-3.605-3.62-5.422-5.416
	c-1.315-1.3-3.238-1.399-4.599-0.265c-1.592,1.328-1.692,3.568-0.2,5.08c1.829,1.853,3.674,3.689,5.522,5.523
	c0.45,0.447,0.696,0.972,0.538,1.58c-0.097,0.372-0.308,0.758-0.575,1.032c-1.81,1.849-3.654,3.663-5.475,5.501
	c-1.427,1.44-1.418,3.578-0.001,4.918c1.39,1.314,3.406,1.276,4.816-0.118c1.851-1.831,3.688-3.675,5.522-5.522
	c0.449-0.451,0.981-0.682,1.586-0.519c0.371,0.101,0.752,0.319,1.026,0.588c1.825,1.788,3.62,3.605,5.429,5.409
	c0.989,0.987,2.157,1.376,3.517,0.947c2.498-0.789,3.215-3.796,1.353-5.694c-1.79-1.823-3.609-3.615-5.415-5.422
	c-0.948-0.949-0.951-1.848-0.009-2.79c1.783-1.784,3.562-3.572,5.352-5.348C37.259,17.564,37.649,16.742,37.688,15.746z"/>
</svg>
