<?xml version="1.0" encoding="utf-8"?>
<!-- Generator: Adobe Illustrator 16.0.4, SVG Export Plug-In . SVG Version: 6.00 Build 0)  -->
<!DOCTYPE svg PUBLIC "-//W3C//DTD SVG 1.1//EN" "http://www.w3.org/Graphics/SVG/1.1/DTD/svg11.dtd">
<svg version="1.1" id="Layer_1" xmlns="http://www.w3.org/2000/svg" xmlns:xlink="http://www.w3.org/1999/xlink" x="0px" y="0px"
	 width="50px" height="50px" viewBox="0 0 50 50" enable-background="new 0 0 50 50" xml:space="preserve">
<path d="M49.506,28.948c-0.951,4.184-2.946,7.735-6.539,10.217c-2.798,1.933-5.912,2.669-9.303,2.181
	c-3.498-0.504-6.482-2.125-9.238-4.229c-2.729-2.083-5.044-4.606-7.379-7.099c-1.479-1.578-2.976-3.159-4.266-4.887
	c-2.159-2.893-2.935-6.148-1.721-9.655c0.729-2.105,2.131-3.686,4.332-4.356c0.94-0.287,1.933-0.421,2.911-0.555
	c0.28-0.039,0.596,0.162,0.889,0.271c0.084,0.032,0.156,0.119,0.216,0.193c1.404,1.74,2.261,3.707,2.374,5.953
	c0.047,0.95-0.203,1.174-1.125,1.398c-0.944,0.229-1.89,0.463-2.814,0.759c-0.711,0.228-0.923,0.676-0.654,1.364
	c0.173,0.442,0.416,0.895,0.74,1.235c1.269,1.33,2.583,2.616,3.879,3.92c1.939,1.95,3.867,3.912,5.821,5.846
	c0.548,0.543,1.084,1.126,1.889,1.333c0.689,0.177,1.12,0.022,1.335-0.663c0.301-0.957,0.542-1.934,0.776-2.91
	c0.189-0.786,0.456-1.073,1.272-1.046c2.289,0.075,4.284,0.948,6.054,2.362c0.458,0.365,0.588,0.839,0.443,1.438
	c-0.203,0.834-0.281,1.698-0.485,2.531c-0.363,1.481-1.363,2.516-2.532,3.413c-0.116,0.089-0.24,0.167-0.356,0.255
	c-0.019,0.014-0.016,0.057-0.033,0.129c1.2-0.037,2.347-0.249,3.44-0.715c3.021-1.289,4.909-3.661,6.208-6.569
	c1.312-2.936,1.534-6.004,1.063-9.16c-0.757-5.072-2.992-9.373-6.716-12.88c-3.334-3.139-7.272-5.134-11.828-5.695
	c-8.961-1.104-16.084,2.128-21.325,9.432c-2.088,2.91-3.291,6.225-3.61,9.805c-0.775,8.684,2.47,15.559,9.532,20.602
	c2.916,2.083,6.233,3.243,9.808,3.614c0.792,0.083,1.588,0.121,2.383,0.167c0.844,0.049,1.429,0.509,1.529,1.223
	c0.125,0.887-0.259,1.475-1.152,1.764c-0.045,0.015-0.086,0.044-0.129,0.067c-0.326,0-0.651,0-0.977,0
	c-0.29-0.03-0.582-0.046-0.869-0.091c-1.583-0.251-3.193-0.392-4.74-0.786c-4.734-1.208-8.743-3.68-12.037-7.282
	c-3.292-3.6-5.371-7.814-6.179-12.632C0.205,28.076,0,25.246,0,24.979c0-0.253,0.045-1.145,0.074-1.335
	c0.253-1.664,0.36-3.367,0.79-4.985C2.569,12.235,6.302,7.261,11.928,3.73c2.937-1.843,6.14-2.993,9.583-3.447
	C22.41,0.165,24.399,0,24.991,0s1.405,0.045,1.708,0.094c1.566,0.249,3.16,0.392,4.691,0.784c4.665,1.192,8.626,3.614,11.901,7.142
	c3.38,3.642,5.503,7.915,6.317,12.821C49.793,21.958,50,23.729,50,24.915S49.75,27.877,49.506,28.948z"/>
<path d="M43.047,25.2c-0.821,0-1.596,0-2.423,0c-0.108-4.125-1.539-7.699-4.451-10.606
	c-2.9-2.895-6.453-4.339-10.622-4.45c0-0.774-0.008-1.53,0.015-2.286c0.002-0.063,0.21-0.175,0.321-0.173
	c3.56,0.053,6.796,1.12,9.71,3.155c2.733,1.908,4.762,4.41,6.086,7.461c0.919,2.118,1.417,4.343,1.398,6.667
	C43.081,25.03,43.064,25.092,43.047,25.2z"/>
<path d="M25.572,14.454c0-0.75,0-1.538,0-2.325c6.636-0.304,13.25,5.659,13.087,13.053c-0.785,0-1.572,0-2.355,0
	C35.61,18.763,32.052,15.206,25.572,14.454z"/>
</svg>
