<?xml version="1.0" encoding="utf-8"?>
<!-- Generator: Adobe Illustrator 16.0.4, SVG Export Plug-In . SVG Version: 6.00 Build 0)  -->
<!DOCTYPE svg PUBLIC "-//W3C//DTD SVG 1.1//EN" "http://www.w3.org/Graphics/SVG/1.1/DTD/svg11.dtd">
<svg version="1.1" id="Layer_1" xmlns="http://www.w3.org/2000/svg" xmlns:xlink="http://www.w3.org/1999/xlink" x="0px" y="0px"
	 width="50px" height="49.805px" viewBox="0 0 50 49.805" enable-background="new 0 0 50 49.805" xml:space="preserve">
<path d="M50,23.047c0,0.13,0,0.26,0,0.391c-9.309,0-18.618-0.007-27.927,0c-0.361,0-0.55-0.069-0.723-0.441
	c-0.817-1.756-2.225-2.667-4.168-2.68c-2.296-0.015-4.227,1.612-4.567,3.81c-0.359,2.318,0.964,4.497,3.13,5.154
	c2.306,0.699,4.598-0.278,5.589-2.424c0.179-0.387,0.372-0.49,0.79-0.49c9.292,0.013,18.585,0,27.877,0c0,0.098,0,0.195,0,0.293
	c-0.133,0.993-0.267,1.987-0.407,3.037c-0.228,0-0.418,0-0.608,0c-5.272,0-10.545,0.005-15.817-0.006
	c-0.612-0.001-1.094,0.196-1.521,0.628c-1.406,1.425-2.833,2.829-4.237,4.255c-0.236,0.239-0.412,0.291-0.747,0.158
	c-3.196-1.265-6.702,1.471-6.222,4.871c0.269,1.904,1.357,3.23,3.186,3.825c1.776,0.577,3.406,0.176,4.688-1.19
	c1.317-1.404,1.715-3.064,0.987-4.906c-0.109-0.275-0.066-0.432,0.134-0.629c1.239-1.223,2.473-2.452,3.693-3.693
	c0.235-0.239,0.474-0.338,0.81-0.338c4.752,0.01,9.503,0.008,14.255,0.008c0.171,0,0.342,0,0.562,0
	c-0.055,0.187-0.082,0.294-0.119,0.397c-1.159,3.268-2.842,6.231-5.182,8.799c-3.917,4.298-8.79,6.799-14.528,7.64
	c-0.817,0.12-1.641,0.194-2.462,0.289c-0.781,0-1.562,0-2.344,0c-0.173-0.027-0.347-0.056-0.521-0.081
	c-1.476-0.211-2.981-0.302-4.423-0.653c-6.744-1.643-12.072-5.303-15.676-11.309c-1.76-2.932-2.79-6.126-3.215-9.515
	C0.175,27.362,0.095,26.473,0,25.586c0-0.456,0-0.912,0-1.367c0.024-0.143,0.055-0.285,0.071-0.429
	c0.136-1.16,0.206-2.332,0.413-3.479c1.172-6.52,4.402-11.77,9.819-15.619C13.71,2.269,17.517,0.827,21.66,0.28
	c0.818-0.108,1.641-0.188,2.461-0.28c0.749,0,1.498,0,2.246,0c0.545,0.061,1.089,0.128,1.635,0.182
	c3.037,0.298,5.921,1.132,8.632,2.527c5.953,3.063,9.81,7.927,12.062,14.151c0.024,0.067,0.01,0.147,0.015,0.243
	c-0.158,0.011-0.286,0.028-0.414,0.028c-4.818,0.001-9.635,0.005-14.453-0.012c-0.225-0.001-0.5-0.136-0.665-0.297
	c-1.247-1.216-2.466-2.459-3.709-3.679c-0.229-0.225-0.279-0.397-0.155-0.708c1.101-2.772-0.804-5.929-3.765-6.266
	c-1.889-0.214-3.762,0.797-4.646,2.508c-0.861,1.669-0.594,3.775,0.652,5.139c1.356,1.484,3.339,1.973,5.145,1.242
	c0.289-0.117,0.454-0.081,0.669,0.137c1.405,1.426,2.834,2.828,4.236,4.256c0.451,0.46,0.951,0.673,1.601,0.671
	c5.257-0.014,10.514-0.008,15.771-0.007c0.19,0,0.381,0,0.575,0c0.027,0.118,0.045,0.178,0.054,0.24
	C49.74,21.252,49.87,22.149,50,23.047z"/>
<path d="M25.037,12.41c-0.967,0.003-1.663-0.682-1.671-1.646c-0.008-0.902,0.722-1.631,1.641-1.639
	c0.922-0.008,1.652,0.699,1.663,1.609C26.681,11.699,25.992,12.407,25.037,12.41z"/>
<path d="M25.069,37.396c0.929,0.014,1.605,0.717,1.601,1.663c-0.005,0.914-0.73,1.633-1.646,1.635
	c-0.928,0.001-1.687-0.769-1.658-1.681C23.397,38.044,24.095,37.381,25.069,37.396z"/>
<path d="M15.519,24.891c0.004-0.909,0.731-1.646,1.625-1.646c0.954-0.001,1.661,0.698,1.669,1.649
	c0.009,0.968-0.722,1.688-1.696,1.67C16.224,26.547,15.515,25.805,15.519,24.891z"/>
</svg>
