<?xml version="1.0" encoding="utf-8"?>
<!-- Generator: Adobe Illustrator 16.0.4, SVG Export Plug-In . SVG Version: 6.00 Build 0)  -->
<!DOCTYPE svg PUBLIC "-//W3C//DTD SVG 1.1//EN" "http://www.w3.org/Graphics/SVG/1.1/DTD/svg11.dtd">
<svg version="1.1" id="Layer_1" xmlns="http://www.w3.org/2000/svg" xmlns:xlink="http://www.w3.org/1999/xlink" x="0px" y="0px"
	 width="392.015px" height="512px" viewBox="0 0 392.015 512" enable-background="new 0 0 392.015 512" xml:space="preserve">
<g>
	<path d="M0,472c0-123.666,0-247.333,0-371c0.245-0.614,0.599-1.208,0.719-1.846
		C4.19,80.595,14.783,68.036,33.005,63.088c7.231-1.963,15.121-1.802,22.727-2.009C66.997,60.773,78.275,61,90,61
		c0-4.79-0.013-9.079,0.002-13.367c0.043-11.963,5.749-17.612,17.848-17.629c13.819-0.019,27.64-0.091,41.458,0.063
		c3.039,0.034,4.598-0.767,6.011-3.672c2.009-4.132,4.672-8.056,7.617-11.603C169.951,6.345,179.678,2.558,190,0c4,0,8,0,12,0
		c0.608,0.26,1.194,0.634,1.829,0.764c15.618,3.195,26.718,11.992,33.507,26.462c0.65,1.385,3.207,2.629,4.897,2.654
		c14.161,0.211,28.327,0.058,42.49,0.143c10.1,0.061,16.123,6.129,16.263,16.207c0.066,4.782,0.012,9.565,0.012,14.77
		c14.824,0,29.137-0.481,43.395,0.2c7.326,0.35,15.158,1.468,21.709,4.507c17.761,8.241,25.85,23.244,25.876,42.6
		c0.066,50.49,0.022,100.98,0.022,151.471c0,68.152-0.02,136.306,0.014,204.459c0.008,15.985-5.264,29.715-18.711,38.761
		c-6.278,4.224-14.152,6.076-21.303,9.003c-104,0-208,0-312,0c-0.604-0.247-1.187-0.625-1.813-0.722
		c-11.51-1.78-20.78-7.321-28.198-16.277C4.405,488.259,1.936,480.271,0,472z M362,286.793c0-59.489,0.01-118.979-0.01-178.468
		c-0.003-11.43-5.826-17.283-17.172-17.315c-13.998-0.04-27.997,0.105-41.992-0.094c-3.323-0.047-4.825,0.981-6.25,4.033
		c-5.896,12.624-15.594,21.573-29.293,24.193c-9.857,1.885-20.18,1.726-30.298,1.785c-33.493,0.194-66.989,0.198-100.482,0.025
		c-19.644-0.102-34.095-8.969-42.466-26.939c-1.261-2.707-2.875-3.061-5.377-3.047c-13.331,0.075-26.662,0.03-39.993,0.037
		c-13.36,0.007-18.665,5.357-18.665,18.838c-0.002,117.812-0.002,235.625,0,353.438c0,13.391,5.35,18.721,18.782,18.721
		c98.149,0.003,196.299,0.003,294.448,0c13.421,0,18.766-5.337,18.767-18.736C362.002,404.439,362,345.616,362,286.793z M270.934,60
		c-14.764,0-28.896,0.036-43.028-0.012c-10.394-0.035-15.894-5.14-16.94-15.562c-0.854-8.514-7.024-14.421-15.026-14.388
		c-7.97,0.033-14.074,5.972-14.913,14.508c-1.015,10.328-6.577,15.408-17.054,15.443c-12.985,0.043-25.97,0.003-38.956,0.021
		c-1.595,0.002-3.189,0.142-5.017,0.229c0,4.451-0.005,8.429,0.001,12.408c0.018,12.788,5.487,18.34,18.124,18.35
		C156.438,91.01,174.75,91,193.063,91c20.643,0,41.287,0.054,61.93-0.029c8.924-0.036,15.362-5.641,15.876-13.955
		C271.207,71.572,270.934,66.09,270.934,60z"/>
	<path fill-rule="evenodd" clip-rule="evenodd" d="M86.8,195.931c-5.197-5.067-9.897-9.521-14.45-14.119
		c-5.429-5.483-5.749-12.371-0.964-17.258c4.883-4.988,11.897-4.675,17.536,0.911c4.588,4.546,9.054,9.217,14.024,14.292
		c5.036-5.101,9.736-9.861,14.436-14.623c3.106-3.148,6.79-4.791,11.235-3.854c9.176,1.932,12.4,12.697,5.778,19.722
		c-4.7,4.986-9.776,9.616-15.352,15.055c4.049,3.87,7.773,7.397,11.456,10.966c1.58,1.532,3.179,3.065,4.583,4.752
		c4.088,4.915,3.792,11.481-0.608,15.816s-11.052,4.668-15.804,0.37c-4.703-4.253-9.061-8.886-13.582-13.34
		c-0.626-0.617-1.314-1.17-2.525-2.24c-4.968,5.144-9.62,10.354-14.691,15.118c-6.906,6.49-17.428,3.343-19.532-5.658
		c-1.038-4.44,0.5-8.162,3.637-11.284C76.73,205.824,81.526,201.131,86.8,195.931z"/>
	<path fill-rule="evenodd" clip-rule="evenodd" d="M94.777,308.884c4.266-4.646,7.719-8.673,11.455-12.419
		c8.863-8.891,17.803-17.703,26.823-26.436c5.316-5.146,12.262-5.258,16.99-0.539c4.742,4.731,4.671,11.806-0.526,16.968
		c-15.427,15.319-30.919,30.576-46.496,45.744c-5.361,5.221-11.867,5.105-17.25-0.151c-7.591-7.416-15.104-14.913-22.506-22.516
		c-4.957-5.092-4.978-12-0.354-16.679c4.622-4.676,11.506-4.65,16.688,0.165c2.558,2.378,5.009,4.874,7.427,7.396
		C89.349,302.839,91.562,305.361,94.777,308.884z"/>
	<path fill-rule="evenodd" clip-rule="evenodd" d="M94.377,413.076c12.704-12.512,24.875-24.51,37.067-36.487
		c1.29-1.269,2.594-2.57,4.081-3.576c4.625-3.124,10.705-2.453,14.603,1.465c3.918,3.938,4.552,9.976,1.404,14.609
		c-0.937,1.377-2.151,2.587-3.346,3.766c-14.578,14.37-29.172,28.726-43.772,43.074c-6.924,6.804-13.006,6.824-19.805,0.053
		c-7.161-7.132-14.407-14.181-21.403-21.47c-6.738-7.021-3.76-17.686,5.396-19.837c4.44-1.041,8.17,0.485,11.287,3.63
		C84.621,403.074,89.302,407.896,94.377,413.076z"/>
	<path fill-rule="evenodd" clip-rule="evenodd" d="M271.01,211c-14.331,0-68.662,0.031-82.992-0.01
		c-10.179-0.03-16.974-6.072-16.979-14.979c-0.006-8.909,6.791-14.986,16.96-14.998c28.995-0.033,97.99-0.033,126.984,0
		c10.179,0.011,16.974,6.071,16.979,14.978c0.006,8.909-6.791,14.969-16.96,14.999C300.338,211.031,285.674,211,271.01,211z"/>
	<path fill-rule="evenodd" clip-rule="evenodd" d="M271.496,286c14.496,0,28.994-0.031,43.491,0.012
		c10.176,0.028,16.972,6.076,16.975,14.984s-6.794,14.98-16.965,14.992c-28.995,0.033-97.99,0.033-126.985,0
		c-10.176-0.012-16.971-6.076-16.974-14.984c-0.002-8.908,6.793-14.963,16.965-14.992C202.5,285.969,256.998,286,271.496,286z"/>
	<path fill-rule="evenodd" clip-rule="evenodd" d="M271.127,421c-14.164,0-68.328,0.017-82.492-0.006
		c-10.671-0.017-17.517-5.824-17.597-14.867c-0.081-9.054,6.815-15.11,17.342-15.119c28.829-0.023,97.657-0.026,126.485,0.003
		c10.237,0.011,17.018,5.962,17.097,14.862c0.08,9.054-6.815,15.099-17.342,15.119C300.123,421.021,285.625,421,271.127,421z"/>
</g>
</svg>
