<?xml version="1.0" encoding="utf-8"?>
<!-- Generator: Adobe Illustrator 16.0.4, SVG Export Plug-In . SVG Version: 6.00 Build 0)  -->
<!DOCTYPE svg PUBLIC "-//W3C//DTD SVG 1.1//EN" "http://www.w3.org/Graphics/SVG/1.1/DTD/svg11.dtd">
<svg version="1.1" id="Layer_1" xmlns="http://www.w3.org/2000/svg" xmlns:xlink="http://www.w3.org/1999/xlink" x="0px" y="0px"
	 width="50px" height="50px" viewBox="0 0 50 50" enable-background="new 0 0 50 50" xml:space="preserve">
<path d="M29.102,0c0.423,0,0.846,0,1.27,0c0.95,0.108,1.908,0.169,2.848,0.334c3.7,0.648,6.993,2.179,9.822,4.663
	c3.532,3.103,5.733,6.975,6.585,11.598c0.185,1,0.374,3.097,0.374,3.577c0,0.479-0.043,1.175-0.081,1.397
	c-0.264,1.533-0.398,3.104-0.826,4.589c-1.208,4.19-3.633,7.587-7.088,10.244c-3.348,2.574-7.144,3.957-11.355,4.12
	c-3.807,0.147-7.376-0.761-10.69-2.651c-0.811-0.463-1.053-0.428-1.703,0.222c-3.175,3.175-6.36,6.339-9.519,9.53
	C7.542,48.83,6.229,49.782,4.492,50c-0.26,0-0.521,0-0.781,0c-0.958-0.201-1.772-0.631-2.471-1.343
	C0.576,47.979,0.201,47.189,0,46.289c0-0.26,0-0.521,0-0.781c0.215-1.699,1.124-3.001,2.309-4.175
	c3.201-3.172,6.379-6.367,9.565-9.553c0.706-0.706,0.734-0.9,0.234-1.775c-0.833-1.46-1.479-2.998-1.922-4.62
	c-1.025-3.75-0.976-7.49,0.181-11.198c1.063-3.408,2.945-6.312,5.552-8.749c2.879-2.692,6.27-4.372,10.141-5.069
	C27.063,0.188,28.087,0.12,29.102,0z M29.688,35.263c8.259,0.03,14.992-6.669,15.027-14.951c0.035-8.24-6.689-14.992-14.964-15.027
	c-8.268-0.035-15.017,6.714-15.015,15.013C14.74,28.552,21.414,35.233,29.688,35.263z"/>
<path d="M30.626,8.067c1.756,0.071,3.431,0.417,5.044,1.073c1.099,0.447,1.623,1.589,1.231,2.674
	c-0.377,1.047-1.526,1.615-2.629,1.227c-1.283-0.452-2.573-0.812-3.947-0.727c-3.496,0.216-6.083,1.864-7.733,4.958
	c-0.298,0.558-0.529,1.157-1.125,1.488c-0.832,0.461-1.765,0.371-2.445-0.24c-0.678-0.609-0.874-1.579-0.474-2.454
	c1.819-3.979,4.85-6.521,9.098-7.562C28.617,8.267,29.632,8.208,30.626,8.067z"/>
</svg>
