<?xml version="1.0" encoding="utf-8"?>
<!-- Generator: Adobe Illustrator 16.0.4, SVG Export Plug-In . SVG Version: 6.00 Build 0)  -->
<!DOCTYPE svg PUBLIC "-//W3C//DTD SVG 1.1//EN" "http://www.w3.org/Graphics/SVG/1.1/DTD/svg11.dtd">
<svg version="1.1" id="Layer_1" xmlns="http://www.w3.org/2000/svg" xmlns:xlink="http://www.w3.org/1999/xlink" x="0px" y="0px"
	 width="412.014px" height="532px" viewBox="0 0 412.014 532" enable-background="new 0 0 412.014 532" xml:space="preserve">
<path fill-rule="evenodd" clip-rule="evenodd" d="M86.8,195.931c-5.197-5.067-9.897-9.521-14.45-14.119
	c-5.429-5.483-5.749-12.371-0.964-17.258c4.883-4.988,11.897-4.675,17.536,0.911c4.588,4.546,9.054,9.217,14.024,14.292
	c5.036-5.101,9.736-9.861,14.436-14.623c3.106-3.148,6.79-4.791,11.235-3.854c9.176,1.932,12.4,12.697,5.778,19.722
	c-4.7,4.986-9.776,9.616-15.352,15.055c4.049,3.87,7.773,7.397,11.456,10.966c1.58,1.532,3.179,3.065,4.583,4.752
	c4.088,4.915,3.792,11.481-0.608,15.816s-11.052,4.668-15.804,0.37c-4.703-4.253-9.061-8.886-13.582-13.34
	c-0.626-0.617-1.314-1.17-2.525-2.24c-4.968,5.144-9.62,10.354-14.691,15.118c-6.906,6.49-17.428,3.343-19.532-5.658
	c-1.038-4.44,0.5-8.162,3.637-11.284C76.73,205.824,81.526,201.131,86.8,195.931z"/>
<path fill-rule="evenodd" clip-rule="evenodd" d="M94.777,308.884c4.266-4.646,7.719-8.673,11.455-12.419
	c8.863-8.891,17.803-17.703,26.823-26.436c5.316-5.146,12.262-5.258,16.99-0.539c4.742,4.731,4.671,11.806-0.526,16.968
	c-15.427,15.319-30.919,30.576-46.496,45.744c-5.361,5.221-11.867,5.105-17.25-0.151c-7.591-7.416-15.104-14.913-22.506-22.516
	c-4.957-5.092-4.978-12-0.354-16.679c4.622-4.676,11.506-4.65,16.688,0.165c2.558,2.378,5.009,4.874,7.427,7.396
	C89.349,302.839,91.562,305.361,94.777,308.884z"/>
<path fill-rule="evenodd" clip-rule="evenodd" d="M94.377,413.076c12.704-12.512,24.875-24.51,37.067-36.487
	c1.29-1.269,2.594-2.57,4.081-3.576c4.625-3.124,10.705-2.453,14.603,1.465c3.918,3.938,4.552,9.976,1.404,14.609
	c-0.937,1.377-2.151,2.587-3.346,3.766c-14.578,14.37-29.172,28.726-43.772,43.074c-6.924,6.804-13.006,6.824-19.805,0.053
	c-7.161-7.132-14.407-14.181-21.403-21.47c-6.738-7.021-3.76-17.686,5.396-19.837c4.44-1.041,8.17,0.485,11.287,3.63
	C84.621,403.074,89.302,407.896,94.377,413.076z"/>
<path fill-rule="evenodd" clip-rule="evenodd" d="M271.01,211c-14.331,0-68.662,0.031-82.992-0.01
	c-10.179-0.03-16.974-6.072-16.979-14.979c-0.006-8.909,6.791-14.986,16.96-14.998c28.995-0.033,97.99-0.033,126.984,0
	c10.179,0.011,16.974,6.071,16.979,14.978c0.006,8.909-6.791,14.969-16.96,14.999C300.338,211.031,285.674,211,271.01,211z"/>
<path fill-rule="evenodd" clip-rule="evenodd" d="M271.496,286c14.496,0,28.994-0.031,43.491,0.012
	c10.176,0.028,16.972,6.076,16.975,14.984s-6.794,14.98-16.965,14.992c-28.995,0.033-97.99,0.033-126.985,0
	c-10.176-0.012-16.971-6.076-16.974-14.984c-0.002-8.908,6.793-14.963,16.965-14.992C202.5,285.969,256.998,286,271.496,286z"/>
<path d="M222.136,481.998c-57.784,0-115.568,0.002-173.352,0c-13.433,0-18.782-5.33-18.782-18.721
	c-0.002-117.812-0.002-235.625,0-353.438c0-13.481,5.305-18.831,18.665-18.838c13.331-0.007,26.663,0.038,39.993-0.037
	c2.502-0.014,4.116,0.341,5.377,3.047c8.372,17.97,22.823,26.838,42.466,26.939c33.494,0.173,66.989,0.169,100.482-0.025
	c10.119-0.059,20.441,0.1,30.298-1.785c13.699-2.62,23.396-11.569,29.293-24.193c1.425-3.052,2.927-4.081,6.25-4.033
	c13.995,0.199,27.994,0.054,41.992,0.094c11.346,0.032,17.169,5.885,17.172,17.315c0.02,59.49,0.01,118.979,0.01,178.468
	c0,18.511,0,37.021,0.001,55.532c11.701,6.993,21.908,16.249,29.995,27.153c0-36.567,0.004-73.135,0.004-109.701
	c0-50.491,0.044-100.981-0.022-151.471c-0.026-19.355-8.115-34.358-25.876-42.6c-6.551-3.04-14.383-4.158-21.709-4.507
	c-14.258-0.681-28.57-0.2-43.395-0.2c0-5.204,0.055-9.988-0.012-14.77c-0.14-10.078-6.163-16.146-16.263-16.207
	c-14.163-0.085-28.329,0.068-42.49-0.143c-1.691-0.025-4.248-1.269-4.897-2.654c-6.79-14.47-17.889-23.267-33.507-26.462
	C203.194,0.634,202.608,0.26,202,0c-4,0-8,0-12,0c-10.322,2.558-20.049,6.345-27.063,14.792c-2.945,3.547-5.608,7.47-7.617,11.603
	c-1.413,2.905-2.972,3.707-6.011,3.672c-13.818-0.154-27.639-0.082-41.458-0.063c-12.099,0.017-17.805,5.666-17.848,17.629
	C89.987,51.921,90,56.21,90,61c-11.725,0-23.003-0.227-34.268,0.079c-7.606,0.207-15.496,0.046-22.727,2.009
	C14.783,68.036,4.19,80.595,0.719,99.154C0.599,99.792,0.245,100.386,0,101c0,123.667,0,247.334,0,371
	c1.936,8.271,4.405,16.259,9.989,23.001c7.418,8.956,16.688,14.497,28.198,16.277c0.626,0.097,1.209,0.475,1.813,0.722
	c69.748,0,139.495,0,209.242,0C238.326,503.918,229.088,493.714,222.136,481.998z M120,60.239c1.828-0.087,3.422-0.227,5.017-0.229
	c12.985-0.018,25.971,0.022,38.956-0.021c10.477-0.035,16.039-5.115,17.054-15.443c0.839-8.536,6.943-14.475,14.913-14.508
	c8.001-0.033,14.171,5.874,15.026,14.388c1.047,10.422,6.546,15.527,16.94,15.562C242.038,60.035,256.17,60,270.934,60
	c0,6.09,0.273,11.572-0.064,17.017c-0.515,8.314-6.952,13.918-15.876,13.955C234.35,91.054,213.706,91,193.063,91
	c-18.313,0-36.625,0.01-54.938-0.004c-12.636-0.009-18.105-5.562-18.124-18.35C119.995,68.668,120,64.689,120,60.239z"/>
<path fill-rule="evenodd" clip-rule="evenodd" d="M215.715,390.995c-10.733,0.003-20.248,0.007-27.334,0.013
	c-10.527,0.009-17.423,6.065-17.342,15.119c0.081,9.043,6.926,14.851,17.597,14.867c3.991,0.006,11.162,0.01,19.716,0.011
	C209.286,410.462,211.823,400.377,215.715,390.995z"/>
<path fill-rule="evenodd" clip-rule="evenodd" fill="#E11FDF" d="M310.14,327.913c-56.128-0.157-101.958,45.484-102.197,101.777
	c-0.238,56.265,45.168,102.017,101.534,102.309c56.365,0.294,102.384-45.423,102.537-101.861
	C412.164,374.121,366.272,328.072,310.14,327.913z M369.367,408.299c-0.936,1.251-2.073,2.36-3.182,3.47
	c-19.503,19.519-39.001,39.039-58.532,58.53c-9.444,9.428-17.539,9.351-27.058-0.162c-9.264-9.26-18.549-18.498-27.774-27.794
	c-7.139-7.192-7.666-16.854-1.367-23.321c6.581-6.756,16.108-6.315,23.668,1.209c6.186,6.156,12.265,12.416,19.01,19.261
	c17.045-17.126,33.7-33.794,50.265-50.551c3.881-3.926,8.266-6.564,13.881-6.038c5.962,0.559,10.576,3.481,13.061,9.124
	C373.877,397.798,373.135,403.272,369.367,408.299z"/>
</svg>
