<?xml version="1.0" encoding="utf-8"?>
<!-- Generator: Adobe Illustrator 16.0.4, SVG Export Plug-In . SVG Version: 6.00 Build 0)  -->
<!DOCTYPE svg PUBLIC "-//W3C//DTD SVG 1.1//EN" "http://www.w3.org/Graphics/SVG/1.1/DTD/svg11.dtd">
<svg version="1.1" id="Layer_1" xmlns="http://www.w3.org/2000/svg" xmlns:xlink="http://www.w3.org/1999/xlink" x="0px" y="0px"
	 width="50px" height="50px" viewBox="0 0 50 50" enable-background="new 0 0 50 50" xml:space="preserve">
<path fill="#1A1A1A" d="M0,46.289C0,32.096,0,17.904,0,3.711c0-0.623,0.478-1.416,0.867-2.027C1.511,0.673,2.958,0,3.711,0
	c1.53,0,3.06,0,4.59,0C8.31,0.194,8.325,0.389,8.325,0.583c0.001,3.774,0.001,7.549,0.001,11.324c0,0.188,0,0.377,0,0.562
	c9.762,0,19.451,0,29.173,0C37.5,8.292,37.5,0,37.5,0h2.344c0.7,0,2.725,0.907,3.71,1.889c1.521,1.517,3.037,3.038,4.556,4.557
	C48.884,7.22,50,9.068,50,10.156c0,12.044,0,24.088,0,36.133c0,0.537-0.478,1.416-0.867,2.027C48.489,49.327,47.058,50,46.289,50
	c-14.193,0-28.385,0-42.578,0c-0.497,0-1.462-0.39-2.082-0.875C0.697,48.396,0,47.043,0,46.289z M41.636,41.644
	c0-7.008,0-13.961,0-20.917c-11.111,0-22.184,0-33.278,0c0,6.98,0,13.934,0,20.917C19.46,41.644,30.53,41.644,41.636,41.644z"/>
<rect x="27.051" fill-rule="evenodd" clip-rule="evenodd" fill="#1A1A1A" width="6.276" height="8.284"/>
<path fill-rule="evenodd" clip-rule="evenodd" fill="#1A1A1A" d="M12.519,29.134c0-1.371,0-2.716,0-4.098c8.306,0,16.607,0,24.945,0
	c0,1.343,0,2.701,0,4.098C29.175,29.134,20.875,29.134,12.519,29.134z"/>
<path fill-rule="evenodd" clip-rule="evenodd" fill="#1A1A1A" d="M37.484,33.362c0,1.38,0,2.726,0,4.104c-8.315,0-16.616,0-24.951,0
	c0-1.353,0-2.71,0-4.104C20.829,33.362,29.129,33.362,37.484,33.362z"/>
</svg>
