<svg xmlns="http://www.w3.org/2000/svg" width="84" height="100" xml:space="preserve"><path d="M41.667.001c1.136.233 2.283.433 3.411.705 9.15 2.216 16.083 10.257 16.916 19.604 1.049 11.771-6.674 22.222-18.247 24.313-8.279 1.496-15.431-.947-21.087-7.207-7.413-8.204-7.626-20.724-.56-29.187C25.904 3.673 30.797.987 36.706.182c.193-.026.424.05.55-.182l4.411.001z"/><path fill="#1A1A1A" d="M41.921 78.776c1.101.053 2.208.023 3.312.012.763-.01 1.074-.309 1.092-1.061.019-.819.015-1.641.002-2.461-.014-.89-.287-1.146-1.209-1.154-1.105-.006-2.21-.018-3.312.006-.449.009-.619-.123-.606-.598.032-1.172.019-2.343.007-3.516-.008-.76-.305-1.072-1.062-1.091a55.306 55.306 0 0 0-2.608-.002c-.848.019-1.106.302-1.11 1.177-.005 1.125-.032 2.251.012 3.374.021.552-.181.672-.686.658-1.104-.032-2.209-.019-3.313-.007-.853.009-1.139.289-1.159 1.145a54.374 54.374 0 0 0-.001 2.32c.017.933.3 1.208 1.233 1.212 1.081.005 2.163.024 3.243-.011.5-.018.733.085.681.645-.052.559-.012 1.124-.011 1.686 0 .609-.009 1.22.002 1.828.013.709.325 1.033 1.028 1.047.869.016 1.739.011 2.608.002.828-.008 1.138-.32 1.144-1.155.008-1.101.033-2.204-.011-3.304-.022-.566.113-.779.724-.752zm15.898-2.646c-.019 1.571 1.283 2.865 2.867 2.855a2.833 2.833 0 0 0 2.818-2.825 2.848 2.848 0 0 0-2.859-2.864c-1.533.001-2.809 1.281-2.826 2.834zm8.657 8.723c1.547.039 2.912-1.285 2.922-2.836.012-1.529-1.27-2.84-2.808-2.869-1.575-.028-2.903 1.258-2.917 2.826-.013 1.522 1.269 2.839 2.803 2.879zm3.089-8.747a2.847 2.847 0 1 0 5.693 0c-.008-1.531-1.301-2.81-2.846-2.812-1.544 0-2.837 1.277-2.847 2.812zm-.168-5.805c-.002-1.569-1.318-2.862-2.896-2.848-1.547.014-2.826 1.295-2.827 2.834 0 1.563 1.329 2.878 2.892 2.858 1.535-.017 2.835-1.324 2.831-2.844z"/><path fill="#1A1A1A" d="M63.505 76.16a2.848 2.848 0 0 0-2.859-2.864c-1.533.001-2.81 1.281-2.826 2.834-.019 1.571 1.283 2.865 2.867 2.855a2.83 2.83 0 0 0 2.818-2.825zm-27.754-2.038c-1.104-.032-2.209-.018-3.313-.007-.853.009-1.139.29-1.159 1.145a54.373 54.373 0 0 0-.001 2.32c.017.935.3 1.208 1.233 1.213 1.081.005 2.163.024 3.243-.011.5-.018.733.085.681.645-.052.557-.011 1.123-.011 1.686 0 .609-.009 1.22.002 1.828.013.709.325 1.033 1.028 1.047.869.016 1.739.011 2.608.002.827-.008 1.137-.32 1.144-1.155.007-1.101.033-2.204-.011-3.304-.023-.566.112-.78.724-.752 1.101.053 2.208.023 3.312.012.763-.01 1.074-.309 1.092-1.061.019-.819.015-1.641.002-2.461-.014-.89-.287-1.146-1.209-1.153-1.105-.007-2.211-.019-3.313.005-.449.009-.619-.123-.606-.598.032-1.17.019-2.344.007-3.516-.008-.76-.305-1.072-1.062-1.092a58.141 58.141 0 0 0-2.608-.002c-.848.018-1.106.302-1.11 1.177-.005 1.125-.032 2.251.012 3.374.023.553-.18.673-.685.658zm30.725 10.731c1.547.039 2.912-1.285 2.922-2.836.012-1.531-1.27-2.84-2.808-2.869-1.575-.028-2.903 1.258-2.917 2.826-.013 1.522 1.269 2.839 2.803 2.879z"/><path d="M22.339 88.512c.627-4.75 1.861-9.344 3.64-13.788 1.297-3.244 2.807-6.383 5.083-9.08 1.751-2.076 3.816-3.65 6.658-3.886.045-.003 1.055.001 1.168.017 2.89.375 5.361 1.571 7.331 3.735.213.233.426.329.73.328 4.125-.005 8.25-.005 12.373 0a.882.882 0 0 0 .73-.329c1.693-1.91 3.861-3.002 6.313-3.589.399-.096 2.298-.158 2.427-.144 1.674.191 3.139.867 4.439 1.914 1.674 1.348 2.969 3.019 4.039 4.856a48.846 48.846 0 0 1 1.807 3.409v-2.799c-.188-.108-.143-.301-.172-.467-.418-2.306-1.372-4.338-3.061-6-1.931-1.897-4.295-3.164-6.648-4.407-12.475-6.585-25.705-8.734-39.645-6.579-8.858 1.367-17.022 4.527-24.485 9.479-1.962 1.303-3.42 3.022-4.241 5.238-.311.838-.544 1.705-.814 2.559 0 6.6.008 13.198-.014 19.797-.002.525.106.631.632.631 7.226-.004 14.451-.006 21.676-.008.011-.459.022-.785.034-.887z"/><path fill="#1A1A1A" d="M75.258 76.106c-.008-1.531-1.301-2.81-2.846-2.812-1.543-.002-2.836 1.274-2.845 2.812a2.845 2.845 0 1 0 5.691 0zm-5.861-5.805c-.002-1.569-1.318-2.862-2.896-2.847-1.547.014-2.826 1.295-2.827 2.834 0 1.562 1.329 2.878 2.892 2.859 1.535-.019 2.835-1.326 2.831-2.846z"/><path fill="#E11FDF" d="M38.89 61.774c2.89.375 5.361 1.571 7.332 3.735.211.233.424.329.729.328 4.125-.005 8.25-.005 12.373 0a.884.884 0 0 0 .731-.329c1.692-1.91 3.86-3.002 6.312-3.589.4-.096 2.298-.158 2.427-.144 1.674.191 3.138.867 4.438 1.914 1.675 1.348 2.97 3.019 4.041 4.856 3.502 6.009 5.525 12.521 6.574 19.361.123.805.174 7.125.143 7.366a9.44 9.44 0 0 1-.404 1.75c-.402 1.182-.973 2.234-2.213 2.765-.346.147-1.781.221-1.848.21-1.953-.337-3.569-1.357-5.098-2.533-2.82-2.17-5.193-4.779-7.375-7.568-.264-.34-.537-.467-.964-.467-8.634.012-17.269.012-25.901 0-.425 0-.703.122-.967.463-1.895 2.445-3.966 4.733-6.334 6.735-1.577 1.333-3.236 2.541-5.25 3.168-.396.123-2.185.157-2.328.121-.82-.209-1.432-.688-1.901-1.378-.504-.742-.757-1.578-.983-2.434-.135-.513-.155-7.068-.086-7.595.627-4.75 1.861-9.344 3.64-13.788 1.297-3.244 2.807-6.383 5.083-9.08 1.751-2.076 3.816-3.65 6.658-3.886.048 0 1.056.005 1.171.019zm-2.465 19.338c0 .608-.009 1.219.002 1.828.013.707.325 1.033 1.028 1.045.869.017 1.739.012 2.608.002.827-.008 1.137-.319 1.144-1.154.007-1.102.033-2.204-.011-3.303-.023-.567.112-.781.724-.752 1.102.052 2.208.022 3.311.011.764-.009 1.076-.31 1.093-1.06.019-.82.015-1.642.002-2.461-.015-.891-.287-1.147-1.209-1.154-1.104-.008-2.21-.018-3.312.005-.449.009-.619-.123-.606-.599.032-1.17.019-2.343.007-3.515-.008-.76-.305-1.073-1.062-1.092a55.306 55.306 0 0 0-2.608-.002c-.848.019-1.106.302-1.11 1.177-.005 1.125-.032 2.251.012 3.374.021.552-.181.673-.686.658-1.104-.032-2.209-.019-3.313-.007-.853.009-1.139.289-1.159 1.145a54.374 54.374 0 0 0-.001 2.32c.017.934.3 1.208 1.233 1.213 1.081.005 2.163.023 3.243-.012.5-.016.733.086.681.646-.052.558-.011 1.125-.011 1.687zm27.249.862c-.014 1.522 1.269 2.84 2.802 2.879 1.547.039 2.912-1.285 2.922-2.836.012-1.531-1.27-2.84-2.808-2.869-1.575-.03-2.902 1.255-2.916 2.826zm2.827-14.52c-1.547.014-2.826 1.295-2.827 2.834 0 1.562 1.329 2.878 2.892 2.859 1.535-.02 2.836-1.326 2.832-2.847-.002-1.569-1.319-2.862-2.897-2.846zm3.064 8.652a2.847 2.847 0 1 0 5.693 0c-.008-1.531-1.301-2.81-2.846-2.812-1.544 0-2.837 1.277-2.847 2.812zm-6.06.054a2.848 2.848 0 0 0-2.859-2.864c-1.533.001-2.81 1.281-2.826 2.834-.019 1.571 1.283 2.865 2.867 2.855a2.83 2.83 0 0 0 2.818-2.825z"/></svg>