<svg xmlns="http://www.w3.org/2000/svg" width="84" height="100" xml:space="preserve"><path d="M41.624 0c1.136.234 2.281.433 3.407.707 9.143 2.22 16.067 10.276 16.899 19.641 1.048 11.795-6.667 22.266-18.229 24.36-8.271 1.499-15.416-.948-21.067-7.221-7.406-8.22-7.619-20.764-.56-29.243C25.875 3.68 30.762.988 36.666.182c.192-.026.424.05.549-.182h4.409zm3.386 82.071c-.118-3.343-.012-6.692-.027-10.039-.013-2.751-.133-5.497-.733-8.194-.165-.742-.262-1.513-.624-2.203v-.456c.365-.583.827-.668 1.505-.493 4.34 1.12 8.399.453 12.111-2.088 1.542-1.057 2.808-2.442 4.208-3.667-10.175-3.826-20.824-4.847-31.924-3.127-8.85 1.372-17.006 4.536-24.461 9.498-1.96 1.305-3.417 3.027-4.237 5.249-.31.84-.544 1.708-.812 2.563 0 6.611.008 13.224-.015 19.835-.002.526.106.632.632.631 15.494-.01 30.988-.012 46.482-.01-1.291-2.192-2.006-4.69-2.105-7.499z"/><path fill="#EDE635" d="M43.625 61.634v-.456c.365-.583.827-.668 1.505-.493 4.34 1.12 8.399.453 12.111-2.088 1.574-1.078 2.859-2.501 4.295-3.745.649-.562 1.177-1.276 2.002-1.621h.549c.396.136.697.408 1 .684 1.446 1.322 2.854 2.69 4.352 3.953 2.479 2.09 5.367 3.19 8.621 3.315 1.543.06 3.047-.132 4.531-.542.798-.221 1.054-.089 1.409.628v.274c-.569 1.714-.877 3.482-1.094 5.269-.188 1.556-.217 3.124-.237 4.687-.038 2.893-.024 5.785.007 8.678.016 1.491-.002 2.975-.317 4.438-1.176 5.456-4.332 9.33-9.396 11.627-2.05.93-4.161 1.725-6.233 2.607-.883.377-1.805.669-2.642 1.151h-.549c-.057-.126-.189-.135-.295-.179-1.885-.793-3.774-1.577-5.657-2.376-1.993-.846-4.059-1.548-5.829-2.85-4.228-3.109-6.561-7.272-6.747-12.524-.118-3.343-.012-6.692-.027-10.039-.013-2.751-.133-5.497-.733-8.194-.167-.743-.264-1.513-.626-2.204z"/></svg>