<svg xmlns="http://www.w3.org/2000/svg" width="38.086" height="50" xml:space="preserve"><path d="M38.086 13.77v30.957c0 .154-.07.598-.079.657-.337 2.085-1.518 3.493-3.459 4.271-.399.159-1.252.345-1.54.345H5.273c-.094 0-.599-.07-.658-.079-1.681-.24-2.978-1.098-3.816-2.55C.422 46.716 0 45.363 0 44.922V5.469c0-.308.07-.794.078-.854C.317 2.933 1.177 1.637 2.629.799 3.284.422 4.531 0 5.176 0h18.652c.203.046.406.095.609.137 1.242.257 2.189.986 3.085 1.842 2.913 2.786 5.848 5.547 8.779 8.313.738.696 1.264 1.518 1.549 2.49.095.324.158.658.236.988zM22.854 2.928H5.519c-1.58 0-2.59 1.006-2.59 2.581v38.954c0 1.606 1.007 2.61 2.618 2.61h26.994c1.61 0 2.617-1.003 2.617-2.61V14.648h-.615c-2.685 0-5.369.004-8.054-.001-2.178-.004-3.628-1.465-3.635-3.65-.002-.749 0-1.497 0-2.246V2.928zm10.73 8.793-7.805-7.376c0 2.35.002 4.563-.001 6.776 0 .438.219.605.639.603 1.383-.007 2.767-.002 4.15-.002l3.017-.001z"/><path d="M18.742 22.459H8.246c-.834 0-1.389-.352-1.607-1.006-.303-.913.31-1.813 1.305-1.914.113-.011.228-.005.341-.005h20.942c.847 0 1.405.339 1.627.98.348 1.005-.372 1.938-1.52 1.942-2.18.009-4.361.003-6.541.003h-4.051zm-.016 7.812c-3.499 0-6.997.001-10.496-.001-.781 0-1.335-.333-1.569-.928-.365-.933.263-1.898 1.299-1.993.097-.009.195-.004.293-.004h20.991c.815 0 1.374.334 1.602.949.361.976-.331 1.948-1.43 1.971-.992.021-1.985.005-2.978.005l-7.712.001zm-7.186 7.813c-1.154 0-2.309.01-3.463-.004-.754-.01-1.275-.426-1.465-1.119-.159-.582.083-1.26.624-1.55a2.07 2.07 0 0 1 .923-.243c2.276-.02 4.552-.015 6.829-.008.919.003 1.554.606 1.559 1.451.005.843-.633 1.461-1.543 1.47-1.155.011-2.31.003-3.464.003z"/></svg>