<svg xmlns="http://www.w3.org/2000/svg" width="99.866" height="100" xml:space="preserve"><path fill-rule="evenodd" clip-rule="evenodd" d="M24.75 23.242c.142-.315.171-.456.254-.55.176-.198.371-.382.573-.554 8.777-7.443 18.911-10.562 30.248-8.679 21.071 3.499 34.369 22.774 30.518 43.809-3.367 18.378-21.273 31.667-39.85 29.671-7.136-.768-13.502-3.297-19.215-7.604-2.535-1.91-4.681-1.731-6.969.431-.483.456-.949.934-1.414 1.41-2.928 2.995-2.75 5.841.628 8.398 11.155 8.443 23.723 11.849 37.553 9.885 27.833-3.952 46.703-30.016 42.098-57.88-5.687-34.4-45.124-52.568-74.86-34.436-3.146 1.918-6.031 4.264-9.139 6.482-2.997-3.008-6.055-6.064-9.097-9.136-1.14-1.151-2.346-1.99-4.064-1.265C.333 3.935-.005 5.308 0 6.967c.029 9.186.009 18.372.018 27.558.003 3.105 1.069 4.182 4.223 4.188 9.119.018 18.239 0 27.358.012 1.616.002 3.123-.236 3.851-1.895.753-1.712.024-3.046-1.232-4.263-3.199-3.099-6.35-6.248-9.468-9.325z"/><path fill-rule="evenodd" clip-rule="evenodd" d="M43.563 42.12c0 4.259-.033 8.52.034 12.777.011.707.248 1.67.741 2.067 4.144 3.337 8.325 6.635 12.595 9.809 2.12 1.575 4.678 1.123 6.453-.865.62-.693 1.182-1.44 1.734-2.19 2.04-2.759 1.721-5.378-.941-7.502-2.185-1.741-4.465-3.37-6.568-5.204-.635-.553-1.151-1.613-1.164-2.45-.096-6.321-.032-12.645-.062-18.967-.015-3.332-1.836-5.14-5.182-5.25a38.281 38.281 0 0 0-2.396-.001c-3.45.104-5.218 1.909-5.237 5.396-.023 4.127-.006 8.254-.007 12.38z"/></svg>