<svg xmlns="http://www.w3.org/2000/svg" width="132" height="60" xml:space="preserve"><path fill-rule="evenodd" clip-rule="evenodd" d="M132 30s-20.022 19.972-29.177 29.18c-.968.971-1.509 1.183-2.568.066a240.002 240.002 0 0 0-9.191-9.166c-1.105-1.041-.96-1.598.051-2.558 3.068-2.924 6.037-5.95 9.458-9.349h-2.81c-54.007 0-41.234 0-95.242-.003-.841 0-1.68-.026-2.521-.04V21.866c.841-.013 1.68-.039 2.521-.039h97.352c.283-.744-.34-.962-.659-1.283-2.678-2.71-5.337-5.44-8.1-8.066-1.011-.959-1.155-1.517-.05-2.56a241.49 241.49 0 0 0 9.191-9.167c1.06-1.115 1.601-.902 2.568.069C111.978 10.029 132 30 132 30z"/></svg>