<svg xmlns="http://www.w3.org/2000/svg" width="50" height="50" xml:space="preserve"><path d="M50 21.875v6.25c-.214.772-.747 1.14-1.512 1.315-1.66.379-3.306.82-4.963 1.21-.3.07-.429.221-.532.483a57.323 57.323 0 0 1-.97 2.334c-.118.264-.125.456.034.714.767 1.244 1.509 2.503 2.259 3.758.56.938.488 1.525-.29 2.307-1.216 1.221-2.435 2.44-3.654 3.659-.788.787-1.376.851-2.346.268-1.224-.737-2.456-1.461-3.673-2.21-.254-.156-.447-.148-.711-.029-.827.373-1.667.719-2.509 1.058-.26.104-.413.231-.483.532-.389 1.658-.831 3.303-1.209 4.963-.174.766-.542 1.298-1.315 1.512h-6.25c-.747-.209-1.132-.705-1.305-1.462-.381-1.676-.828-3.338-1.221-5.012-.071-.3-.222-.428-.483-.532a62.609 62.609 0 0 1-2.467-1.032c-.251-.113-.431-.113-.665.03-1.233.754-2.472 1.5-3.717 2.233-.889.523-1.498.439-2.227-.286a1284.088 1284.088 0 0 1-3.691-3.69c-.77-.772-.841-1.377-.282-2.305.729-1.21 1.451-2.425 2.188-3.631.15-.245.16-.437.035-.71a50.745 50.745 0 0 1-1.031-2.468c-.104-.263-.235-.411-.534-.481-1.674-.395-3.335-.841-5.012-1.223C.707 29.257.209 28.873 0 28.125v-6.25c.209-.748.706-1.132 1.462-1.305a157 157 0 0 0 5.006-1.247c.192-.05.407-.245.492-.429.326-.706.586-1.441.906-2.151.115-.256.091-.436-.049-.666-.844-1.388-1.673-2.784-2.505-4.179-.545-.914-.473-1.51.278-2.264 1.216-1.221 2.436-2.438 3.656-3.657.809-.808 1.404-.876 2.388-.284 1.308.787 2.622 1.565 3.922 2.365.25.154.443.169.714.046a68.914 68.914 0 0 1 2.597-1.099c.261-.105.412-.233.482-.533.394-1.674.841-3.335 1.222-5.012.171-.755.557-1.251 1.304-1.46h6.25c.748.209 1.135.707 1.307 1.463.382 1.678.809 3.346 1.245 5.011.05.194.245.413.429.498.811.372 1.636.715 2.471 1.028.189.07.48.048.654-.053 1.295-.747 2.574-1.524 3.856-2.293.888-.532 1.506-.464 2.231.259 1.221 1.218 2.44 2.439 3.659 3.66.848.849.915 1.373.291 2.423a286.129 286.129 0 0 1-2.237 3.72c-.165.267-.167.477-.038.761.356.782.683 1.579.994 2.38.112.289.269.425.578.498 1.66.392 3.307.835 4.969 1.214.759.173 1.257.557 1.466 1.306zm-25.011-7.128a10.25 10.25 0 0 0-10.243 10.235c-.01 5.67 4.592 10.276 10.261 10.271 5.651-.005 10.236-4.586 10.246-10.238.009-5.67-4.593-10.274-10.264-10.268z"/></svg>