<svg xmlns="http://www.w3.org/2000/svg" width="50" height="50" xml:space="preserve"><path d="M0 24.414v-.195c.163-.721.456-1.371 1.17-1.7.361-.166.77-.23 1.22-.359-.06-.372-.105-.787-.195-1.192-.523-2.368 1.016-3.774 2.837-3.776 3.672-.003 7.345-.005 11.017.002 1.23.002 2.253.467 3.05 1.412.894 1.061 1.809 2.103 2.686 3.177.283.347.574.489 1.032.488 5.64-.017 11.279-.013 16.919-.009 1.229.001 2.096.729 2.28 1.916.208 1.347.4 2.695.598 4.043.438 2.985.871 5.971 1.314 8.955.475 3.192.968 6.382 1.432 9.576.076.523.141 1.081.04 1.59-.196.991-.951 1.458-1.897 1.658H6.2c-.045-.019-.088-.047-.135-.056-1.442-.285-2.184-.979-2.45-2.413-.255-1.371-.448-2.753-.662-4.131-.413-2.662-.821-5.323-1.233-7.985-.345-2.227-.69-4.454-1.038-6.681-.225-1.441-.454-2.88-.682-4.32zM39.862 0c.044.02.087.047.134.059 1.206.288 1.787.973 1.789 2.212.01 5.583.002 11.166.011 16.748 0 .357-.103.488-.474.48-.93-.021-1.861-.007-2.833-.007V3.299H14.386v11.503h-3.565V2.779c0-1.677.48-2.32 2.072-2.778L39.862 0zM50 21.094c-.196 1.264-.397 2.525-.587 3.79-.349 2.325-.69 4.652-1.035 6.979s-.689 4.653-1.036 6.979c-.1.673-.209 1.345-.314 2.017l-.146.018-3.007-21.995c1.519 0 2.895-.07 4.261.022 1.106.075 1.65.869 1.864 1.897v.293z"/><path d="M26.324 7.022c2.294 0 4.589-.006 6.883.004.901.004 1.585.641 1.721 1.561.118.799-.466 1.684-1.275 1.907a2.213 2.213 0 0 1-.582.057c-4.49.003-8.98.004-13.471.001-1.08-.001-1.855-.76-1.843-1.785.013-1.012.771-1.743 1.831-1.745 2.246-.003 4.491-.001 6.736 0zm-8.497 7.965c.2-.808.73-1.277 1.528-1.352a4.63 4.63 0 0 1 .441-.016h13.125c1.048 0 1.679.416 1.927 1.248.356 1.196-.47 2.303-1.783 2.309-3.9.018-7.8.008-11.7.001-.131 0-.309-.045-.387-.136a6.472 6.472 0 0 0-3.039-1.972c-.043-.013-.077-.055-.112-.082z"/></svg>