<svg xmlns="http://www.w3.org/2000/svg" width="50" height="50" xml:space="preserve"><path d="M25 0c.626 0 1.327.054 1.406.062 1.032.115 2.078.155 3.093.352 6.756 1.31 12.132 4.784 16.082 10.419 2.243 3.2 3.619 6.758 4.143 10.636.107.785.276 2.75.276 3.531s-.062 1.518-.083 1.691c-.109.935-.153 1.881-.333 2.802-1.308 6.714-4.742 12.08-10.334 16.027a23.846 23.846 0 0 1-10.763 4.209c-.769.102-3.172.271-3.487.271s-1.521-.062-1.697-.082c-.934-.11-1.88-.155-2.8-.333-6.57-1.276-11.854-4.608-15.801-10.018A23.812 23.812 0 0 1 .381 29.205C.218 28.2 0 25.817 0 25s.057-1.552.084-1.743c.18-1.267.27-2.554.555-3.797C1.995 13.554 5.114 8.755 9.921 5.077 13.323 2.473 17.164.872 21.414.282 22.217.17 24.374 0 25 0zm12.688 15.746c-.019-.782-.25-1.497-.742-2.117-1.312-1.654-3.59-1.77-5.141-.241-1.807 1.783-3.591 3.588-5.387 5.382-.971.97-1.862.972-2.827.008-1.807-1.806-3.605-3.62-5.422-5.416-1.315-1.3-3.238-1.399-4.599-.265-1.592 1.328-1.692 3.568-.2 5.08a756.684 756.684 0 0 0 5.522 5.523c.45.447.696.972.538 1.58a2.408 2.408 0 0 1-.575 1.032c-1.81 1.849-3.654 3.663-5.475 5.501-1.427 1.44-1.418 3.578-.001 4.918 1.39 1.314 3.406 1.276 4.816-.118a871.174 871.174 0 0 0 5.522-5.522c.449-.451.981-.682 1.586-.519a2.44 2.44 0 0 1 1.026.588c1.825 1.788 3.62 3.605 5.429 5.409.989.987 2.157 1.376 3.517.947 2.498-.789 3.215-3.796 1.353-5.694-1.79-1.823-3.609-3.615-5.415-5.422-.948-.949-.951-1.848-.009-2.79 1.783-1.784 3.562-3.572 5.352-5.348.703-.698 1.093-1.52 1.132-2.516z"/></svg>