<svg xmlns="http://www.w3.org/2000/svg" width="392.015" height="512" xml:space="preserve"><path d="M0 472V101c.245-.614.599-1.208.719-1.846C4.19 80.595 14.783 68.036 33.005 63.088c7.231-1.963 15.121-1.802 22.727-2.009C66.997 60.773 78.275 61 90 61c0-4.79-.013-9.079.002-13.367.043-11.963 5.749-17.612 17.848-17.629 13.819-.019 27.64-.091 41.458.063 3.039.034 4.598-.767 6.011-3.672 2.009-4.132 4.672-8.056 7.617-11.603C169.951 6.345 179.678 2.558 190 0h12c.608.26 1.194.634 1.829.764 15.618 3.195 26.718 11.992 33.507 26.462.65 1.385 3.207 2.629 4.897 2.654 14.161.211 28.327.058 42.49.143 10.1.061 16.123 6.129 16.263 16.207.066 4.782.012 9.565.012 14.77 14.824 0 29.137-.481 43.395.2 7.326.35 15.158 1.468 21.709 4.507 17.761 8.241 25.85 23.244 25.876 42.6.066 50.49.022 100.98.022 151.471 0 68.152-.02 136.306.014 204.459.008 15.985-5.264 29.715-18.711 38.761-6.278 4.224-14.152 6.076-21.303 9.003H40c-.604-.247-1.187-.625-1.813-.722-11.51-1.78-20.78-7.321-28.198-16.277C4.405 488.259 1.936 480.271 0 472zm362-185.207c0-59.489.01-118.979-.01-178.468-.003-11.43-5.826-17.283-17.172-17.315-13.998-.04-27.997.105-41.992-.094-3.323-.047-4.825.981-6.25 4.033-5.896 12.624-15.594 21.573-29.293 24.193-9.857 1.885-20.18 1.726-30.298 1.785a9170.49 9170.49 0 0 1-100.482.025c-19.644-.102-34.095-8.969-42.466-26.939-1.261-2.707-2.875-3.061-5.377-3.047-13.331.075-26.662.03-39.993.037-13.36.007-18.665 5.357-18.665 18.838-.002 117.812-.002 235.625 0 353.438 0 13.391 5.35 18.721 18.782 18.721 98.149.003 196.299.003 294.448 0 13.421 0 18.766-5.337 18.767-18.736.003-58.825.001-117.648.001-176.471zM270.934 60c-14.764 0-28.896.036-43.028-.012-10.394-.035-15.894-5.14-16.94-15.562-.854-8.514-7.024-14.421-15.026-14.388-7.97.033-14.074 5.972-14.913 14.508-1.015 10.328-6.577 15.408-17.054 15.443-12.985.043-25.97.003-38.956.021-1.595.002-3.189.142-5.017.229 0 4.451-.005 8.429.001 12.408.018 12.788 5.487 18.34 18.124 18.35 18.313.013 36.625.003 54.938.003 20.643 0 41.287.054 61.93-.029 8.924-.036 15.362-5.641 15.876-13.955.338-5.444.065-10.926.065-17.016z"/><path fill-rule="evenodd" clip-rule="evenodd" d="M86.8 195.931c-5.197-5.067-9.897-9.521-14.45-14.119-5.429-5.483-5.749-12.371-.964-17.258 4.883-4.988 11.897-4.675 17.536.911 4.588 4.546 9.054 9.217 14.024 14.292l14.436-14.623c3.106-3.148 6.79-4.791 11.235-3.854 9.176 1.932 12.4 12.697 5.778 19.722-4.7 4.986-9.776 9.616-15.352 15.055 4.049 3.87 7.773 7.397 11.456 10.966 1.58 1.532 3.179 3.065 4.583 4.752 4.088 4.915 3.792 11.481-.608 15.816s-11.052 4.668-15.804.37c-4.703-4.253-9.061-8.886-13.582-13.34-.626-.617-1.314-1.17-2.525-2.24-4.968 5.144-9.62 10.354-14.691 15.118-6.906 6.49-17.428 3.343-19.532-5.658-1.038-4.44.5-8.162 3.637-11.284 4.753-4.733 9.549-9.426 14.823-14.626zm7.977 112.953c4.266-4.646 7.719-8.673 11.455-12.419a2122.62 2122.62 0 0 1 26.823-26.436c5.316-5.146 12.262-5.258 16.99-.539 4.742 4.731 4.671 11.806-.526 16.968a6663.002 6663.002 0 0 1-46.496 45.744c-5.361 5.221-11.867 5.105-17.25-.151a1270.697 1270.697 0 0 1-22.506-22.516c-4.957-5.092-4.978-12-.354-16.679 4.622-4.676 11.506-4.65 16.688.165 2.558 2.378 5.009 4.874 7.427 7.396 2.321 2.422 4.534 4.944 7.749 8.467zm-.4 104.192c12.704-12.512 24.875-24.51 37.067-36.487 1.29-1.269 2.594-2.57 4.081-3.576 4.625-3.124 10.705-2.453 14.603 1.465 3.918 3.938 4.552 9.976 1.404 14.609-.937 1.377-2.151 2.587-3.346 3.766a40406.65 40406.65 0 0 1-43.772 43.074c-6.924 6.804-13.006 6.824-19.805.053-7.161-7.132-14.407-14.181-21.403-21.47-6.738-7.021-3.76-17.686 5.396-19.837 4.44-1.041 8.17.485 11.287 3.63 4.732 4.771 9.413 9.593 14.488 14.773zM271.01 211c-14.331 0-68.662.031-82.992-.01-10.179-.03-16.974-6.072-16.979-14.979-.006-8.909 6.791-14.986 16.96-14.998 28.995-.033 97.99-.033 126.984 0 10.179.011 16.974 6.071 16.979 14.978.006 8.909-6.791 14.969-16.96 14.999-14.664.041-29.328.01-43.992.01zm.486 75c14.496 0 28.994-.031 43.491.012 10.176.028 16.972 6.076 16.975 14.984s-6.794 14.98-16.965 14.992c-28.995.033-97.99.033-126.985 0-10.176-.012-16.971-6.076-16.974-14.984-.002-8.908 6.793-14.963 16.965-14.992 14.497-.043 68.995-.012 83.493-.012zm-.369 135c-14.164 0-68.328.017-82.492-.006-10.671-.017-17.517-5.824-17.597-14.867-.081-9.054 6.815-15.11 17.342-15.119 28.829-.023 97.657-.026 126.485.003 10.237.011 17.018 5.962 17.097 14.862.08 9.054-6.815 15.099-17.342 15.119-14.497.029-28.995.008-43.493.008z"/></svg>