<svg xmlns="http://www.w3.org/2000/svg" width="50" height="50" xml:space="preserve"><path d="M29.102 0h1.27c.95.108 1.908.169 2.848.334 3.7.648 6.993 2.179 9.822 4.663 3.532 3.103 5.733 6.975 6.585 11.598.185 1 .374 3.097.374 3.577 0 .479-.043 1.175-.081 1.397-.264 1.533-.398 3.104-.826 4.589-1.208 4.19-3.633 7.587-7.088 10.244-3.348 2.574-7.144 3.957-11.355 4.12-3.807.147-7.376-.761-10.69-2.651-.811-.463-1.053-.428-1.703.222-3.175 3.175-6.36 6.339-9.519 9.53C7.542 48.83 6.229 49.782 4.492 50h-.781a4.711 4.711 0 0 1-2.471-1.343C.576 47.979.201 47.189 0 46.289v-.781c.215-1.699 1.124-3.001 2.309-4.175 3.201-3.172 6.379-6.367 9.565-9.553.706-.706.734-.9.234-1.775a19.842 19.842 0 0 1-1.922-4.62c-1.025-3.75-.976-7.49.181-11.198 1.063-3.408 2.945-6.312 5.552-8.749 2.879-2.692 6.27-4.372 10.141-5.069C27.063.188 28.087.12 29.102 0zm.586 35.263c8.259.03 14.992-6.669 15.027-14.951.035-8.24-6.689-14.992-14.964-15.027-8.268-.035-15.017 6.714-15.015 15.013.004 8.254 6.678 14.935 14.952 14.965z"/><path d="M30.626 8.067c1.756.071 3.431.417 5.044 1.073 1.099.447 1.623 1.589 1.231 2.674a2.047 2.047 0 0 1-2.629 1.227c-1.283-.452-2.573-.812-3.947-.727-3.496.216-6.083 1.864-7.733 4.958-.298.558-.529 1.157-1.125 1.488-.832.461-1.765.371-2.445-.24-.678-.609-.874-1.579-.474-2.454 1.819-3.979 4.85-6.521 9.098-7.562.971-.237 1.986-.296 2.98-.437z"/></svg>