<svg xmlns="http://www.w3.org/2000/svg" width="50" height="50" xml:space="preserve"><path d="M49.506 28.948c-.951 4.184-2.946 7.735-6.539 10.217-2.798 1.933-5.912 2.669-9.303 2.181-3.498-.504-6.482-2.125-9.238-4.229-2.729-2.083-5.044-4.606-7.379-7.099-1.479-1.578-2.976-3.159-4.266-4.887-2.159-2.893-2.935-6.148-1.721-9.655.729-2.105 2.131-3.686 4.332-4.356.94-.287 1.933-.421 2.911-.555.28-.039.596.162.889.271.084.032.156.119.216.193 1.404 1.74 2.261 3.707 2.374 5.953.047.95-.203 1.174-1.125 1.398-.944.229-1.89.463-2.814.759-.711.228-.923.676-.654 1.364.173.442.416.895.74 1.235 1.269 1.33 2.583 2.616 3.879 3.92 1.939 1.95 3.867 3.912 5.821 5.846.548.543 1.084 1.126 1.889 1.333.689.177 1.12.022 1.335-.663.301-.957.542-1.934.776-2.91.189-.786.456-1.073 1.272-1.046 2.289.075 4.284.948 6.054 2.362.458.365.588.839.443 1.438-.203.834-.281 1.698-.485 2.531-.363 1.481-1.363 2.516-2.532 3.413-.116.089-.24.167-.356.255-.019.014-.016.057-.033.129 1.2-.037 2.347-.249 3.44-.715 3.021-1.289 4.909-3.661 6.208-6.569 1.312-2.936 1.534-6.004 1.063-9.16-.757-5.072-2.992-9.373-6.716-12.88-3.334-3.139-7.272-5.134-11.828-5.695-8.961-1.104-16.084 2.128-21.325 9.432-2.088 2.91-3.291 6.225-3.61 9.805-.775 8.684 2.47 15.559 9.532 20.602 2.916 2.083 6.233 3.243 9.808 3.614.792.083 1.588.121 2.383.167.844.049 1.429.509 1.529 1.223.125.887-.259 1.475-1.152 1.764-.045.015-.086.044-.129.067h-.977c-.29-.03-.582-.046-.869-.091-1.583-.251-3.193-.392-4.74-.786-4.734-1.208-8.743-3.68-12.037-7.282-3.292-3.6-5.371-7.814-6.179-12.632C.205 28.076 0 25.246 0 24.979c0-.253.045-1.145.074-1.335.253-1.664.36-3.367.79-4.985C2.569 12.235 6.302 7.261 11.928 3.73A23.664 23.664 0 0 1 21.511.283C22.41.165 24.399 0 24.991 0s1.405.045 1.708.094c1.566.249 3.16.392 4.691.784 4.665 1.192 8.626 3.614 11.901 7.142 3.38 3.642 5.503 7.915 6.317 12.821.185 1.117.392 2.888.392 4.074s-.25 2.962-.494 4.033z"/><path d="M43.047 25.2h-2.423c-.108-4.125-1.539-7.699-4.451-10.606-2.9-2.895-6.453-4.339-10.622-4.45 0-.774-.008-1.53.015-2.286.002-.063.21-.175.321-.173 3.56.053 6.796 1.12 9.71 3.155 2.733 1.908 4.762 4.41 6.086 7.461.919 2.118 1.417 4.343 1.398 6.667 0 .062-.017.124-.034.232z"/><path d="M25.572 14.454v-2.325c6.636-.304 13.25 5.659 13.087 13.053h-2.355c-.694-6.419-4.252-9.976-10.732-10.728z"/></svg>