<svg xmlns="http://www.w3.org/2000/svg" width="50" height="50.155" xml:space="preserve"><path d="M20.766 49.765c-9.018-1.783-15.462-6.877-18.871-15.394-3.313-8.28-2.216-16.238 2.781-23.626 1.319-1.951 2.969-3.616 4.808-5.089 1.318-1.056 3.066-.917 4.143.317 1.042 1.196.938 2.976-.331 4.087-1.322 1.159-2.609 2.341-3.64 3.773-3.047 4.233-4.238 8.931-3.501 14.105.589 4.142 2.384 7.698 5.308 10.661 2.95 2.99 6.524 4.813 10.689 5.467 3.501.55 6.889.127 10.154-1.203 3.045-1.24 5.598-3.175 7.658-5.738 1.855-2.306 3.127-4.908 3.745-7.802 1.108-5.19.249-10.047-2.6-14.533-1.097-1.728-2.476-3.208-4.06-4.505-1.314-1.076-1.642-2.589-.881-3.882.939-1.597 2.973-1.951 4.449-.746 5.044 4.115 8.159 9.362 9.109 15.82 1.801 12.256-5.453 23.817-17.245 27.542-1.8.568-3.644.928-5.531 1.05-.144.009-1.045.085-1.951.085-.906.002-3.307-.206-4.233-.389z"/><path d="M25.542 0c.883.219 1.708.545 2.344 1.234.75.812 1.069 1.787 1.07 2.871.004 6.354.01 12.707-.001 19.06-.003 2.015-1.082 3.447-2.933 3.98-2.203.636-4.604-1.005-4.811-3.294a13.868 13.868 0 0 1-.062-1.272c-.004-6.092-.001-12.183-.004-18.273 0-1.133.259-2.165 1.04-3.031C22.826.562 23.659.225 24.559 0h.983z"/></svg>