<svg xmlns="http://www.w3.org/2000/svg" width="412.014" height="532" xml:space="preserve"><path fill-rule="evenodd" clip-rule="evenodd" d="M86.8 195.931c-5.197-5.067-9.897-9.521-14.45-14.119-5.429-5.483-5.749-12.371-.964-17.258 4.883-4.988 11.897-4.675 17.536.911 4.588 4.546 9.054 9.217 14.024 14.292l14.436-14.623c3.106-3.148 6.79-4.791 11.235-3.854 9.176 1.932 12.4 12.697 5.778 19.722-4.7 4.986-9.776 9.616-15.352 15.055 4.049 3.87 7.773 7.397 11.456 10.966 1.58 1.532 3.179 3.065 4.583 4.752 4.088 4.915 3.792 11.481-.608 15.816s-11.052 4.668-15.804.37c-4.703-4.253-9.061-8.886-13.582-13.34-.626-.617-1.314-1.17-2.525-2.24-4.968 5.144-9.62 10.354-14.691 15.118-6.906 6.49-17.428 3.343-19.532-5.658-1.038-4.44.5-8.162 3.637-11.284 4.753-4.733 9.549-9.426 14.823-14.626zm7.977 112.953c4.266-4.646 7.719-8.673 11.455-12.419a2122.62 2122.62 0 0 1 26.823-26.436c5.316-5.146 12.262-5.258 16.99-.539 4.742 4.731 4.671 11.806-.526 16.968a6663.002 6663.002 0 0 1-46.496 45.744c-5.361 5.221-11.867 5.105-17.25-.151a1270.697 1270.697 0 0 1-22.506-22.516c-4.957-5.092-4.978-12-.354-16.679 4.622-4.676 11.506-4.65 16.688.165 2.558 2.378 5.009 4.874 7.427 7.396 2.321 2.422 4.534 4.944 7.749 8.467zm-.4 104.192c12.704-12.512 24.875-24.51 37.067-36.487 1.29-1.269 2.594-2.57 4.081-3.576 4.625-3.124 10.705-2.453 14.603 1.465 3.918 3.938 4.552 9.976 1.404 14.609-.937 1.377-2.151 2.587-3.346 3.766a40406.65 40406.65 0 0 1-43.772 43.074c-6.924 6.804-13.006 6.824-19.805.053-7.161-7.132-14.407-14.181-21.403-21.47-6.738-7.021-3.76-17.686 5.396-19.837 4.44-1.041 8.17.485 11.287 3.63 4.732 4.771 9.413 9.593 14.488 14.773zM271.01 211c-14.331 0-68.662.031-82.992-.01-10.179-.03-16.974-6.072-16.979-14.979-.006-8.909 6.791-14.986 16.96-14.998 28.995-.033 97.99-.033 126.984 0 10.179.011 16.974 6.071 16.979 14.978.006 8.909-6.791 14.969-16.96 14.999-14.664.041-29.328.01-43.992.01zm.486 75c14.496 0 28.994-.031 43.491.012 10.176.028 16.972 6.076 16.975 14.984s-6.794 14.98-16.965 14.992c-28.995.033-97.99.033-126.985 0-10.176-.012-16.971-6.076-16.974-14.984-.002-8.908 6.793-14.963 16.965-14.992 14.497-.043 68.995-.012 83.493-.012z"/><path d="M222.136 481.998c-57.784 0-115.568.002-173.352 0-13.433 0-18.782-5.33-18.782-18.721-.002-117.812-.002-235.625 0-353.438 0-13.481 5.305-18.831 18.665-18.838 13.331-.007 26.663.038 39.993-.037 2.502-.014 4.116.341 5.377 3.047 8.372 17.97 22.823 26.838 42.466 26.939 33.494.173 66.989.169 100.482-.025 10.119-.059 20.441.1 30.298-1.785 13.699-2.62 23.396-11.569 29.293-24.193 1.425-3.052 2.927-4.081 6.25-4.033 13.995.199 27.994.054 41.992.094 11.346.032 17.169 5.885 17.172 17.315.02 59.49.01 118.979.01 178.468l.001 55.532a103.473 103.473 0 0 1 29.995 27.153c0-36.567.004-73.135.004-109.701 0-50.491.044-100.981-.022-151.471-.026-19.355-8.115-34.358-25.876-42.6-6.551-3.04-14.383-4.158-21.709-4.507-14.258-.681-28.57-.2-43.395-.2 0-5.204.055-9.988-.012-14.77-.14-10.078-6.163-16.146-16.263-16.207-14.163-.085-28.329.068-42.49-.143-1.691-.025-4.248-1.269-4.897-2.654-6.79-14.47-17.889-23.267-33.507-26.462C203.194.634 202.608.26 202 0h-12c-10.322 2.558-20.049 6.345-27.063 14.792-2.945 3.547-5.608 7.47-7.617 11.603-1.413 2.905-2.972 3.707-6.011 3.672-13.818-.154-27.639-.082-41.458-.063-12.099.017-17.805 5.666-17.848 17.629C89.987 51.921 90 56.21 90 61c-11.725 0-23.003-.227-34.268.079-7.606.207-15.496.046-22.727 2.009C14.783 68.036 4.19 80.595.719 99.154.599 99.792.245 100.386 0 101v371c1.936 8.271 4.405 16.259 9.989 23.001 7.418 8.956 16.688 14.497 28.198 16.277.626.097 1.209.475 1.813.722h209.242a102.347 102.347 0 0 1-27.106-30.002zM120 60.239c1.828-.087 3.422-.227 5.017-.229 12.985-.018 25.971.022 38.956-.021 10.477-.035 16.039-5.115 17.054-15.443.839-8.536 6.943-14.475 14.913-14.508 8.001-.033 14.171 5.874 15.026 14.388 1.047 10.422 6.546 15.527 16.94 15.562 14.132.047 28.264.012 43.028.012 0 6.09.273 11.572-.064 17.017-.515 8.314-6.952 13.918-15.876 13.955-20.644.082-41.288.028-61.931.028-18.313 0-36.625.01-54.938-.004-12.636-.009-18.105-5.562-18.124-18.35-.006-3.978-.001-7.957-.001-12.407z"/><path fill-rule="evenodd" clip-rule="evenodd" d="M215.715 390.995c-10.733.003-20.248.007-27.334.013-10.527.009-17.423 6.065-17.342 15.119.081 9.043 6.926 14.851 17.597 14.867 3.991.006 11.162.01 19.716.011a101.636 101.636 0 0 1 7.363-30.01z"/><path fill-rule="evenodd" clip-rule="evenodd" fill="#E11FDF" d="M310.14 327.913c-56.128-.157-101.958 45.484-102.197 101.777-.238 56.265 45.168 102.017 101.534 102.309 56.365.294 102.384-45.423 102.537-101.861.15-56.017-45.742-102.066-101.874-102.225zm59.227 80.386c-.936 1.251-2.073 2.36-3.182 3.47-19.503 19.519-39.001 39.039-58.532 58.53-9.444 9.428-17.539 9.351-27.058-.162-9.264-9.26-18.549-18.498-27.774-27.794-7.139-7.192-7.666-16.854-1.367-23.321 6.581-6.756 16.108-6.315 23.668 1.209 6.186 6.156 12.265 12.416 19.01 19.261 17.045-17.126 33.7-33.794 50.265-50.551 3.881-3.926 8.266-6.564 13.881-6.038 5.962.559 10.576 3.481 13.061 9.124 2.538 5.771 1.796 11.245-1.972 16.272z"/></svg>