<svg xmlns="http://www.w3.org/2000/svg" width="50" height="50" xml:space="preserve"><path d="M0 46.289V3.711c0-.623.478-1.416.867-2.027C1.511.673 2.958 0 3.711 0h4.59c.009.194.024.389.024.583l.001 11.324v.562h29.173L37.5 0h2.344c.7 0 2.725.907 3.71 1.889 1.521 1.517 3.037 3.038 4.556 4.557.774.774 1.89 2.622 1.89 3.71v36.133c0 .537-.478 1.416-.867 2.027C48.489 49.327 47.058 50 46.289 50H3.711c-.497 0-1.462-.39-2.082-.875C.697 48.396 0 47.043 0 46.289zm41.636-4.645V20.727H8.358v20.917h33.278z"/><path fill-rule="evenodd" clip-rule="evenodd" d="M27.051 0h6.276v8.284h-6.276zM12.519 29.134v-4.098h24.945v4.098H12.519zm24.965 4.228v4.104H12.533v-4.104h24.951z"/></svg>